<svg viewBox="0 0 55.49 56.77" xmlns="http://www.w3.org/2000/svg"><g fill="#fff"><circle cx="3.15" cy="3.25" opacity=".15" r="2.43"/><circle cx="11.38" cy="3.25" opacity=".15" r="2.43"/><circle cx="19.6" cy="3.25" opacity=".15" r="2.43"/><circle cx="27.82" cy="3.25" opacity=".15" r="2.43"/><circle cx="36.04" cy="3.25" opacity=".15" r="2.43"/><circle cx="44.26" cy="3.25" opacity=".15" r="2.43"/><circle cx="52.48" cy="3.25" opacity=".15" r="2.43"/><circle cx="3.15" cy="52.84" opacity=".15" r="2.43"/><circle cx="11.38" cy="52.84" opacity=".15" r="2.43"/><circle cx="19.6" cy="52.84" opacity=".15" r="2.43"/><circle cx="27.82" cy="52.84" opacity=".15" r="2.43"/><circle cx="36.04" cy="52.84" opacity=".15" r="2.43"/><circle cx="44.26" cy="52.84" opacity=".15" r="2.43"/><circle cx="52.48" cy="52.84" opacity=".15" r="2.43"/><circle cx="3.15" cy="15.65" opacity=".15" r="2.43"/><circle cx="11.38" cy="15.65" opacity=".15" r="2.43"/><circle cx="19.6" cy="15.65" opacity=".15" r="2.43"/><circle cx="27.82" cy="15.65" opacity=".15" r="2.43"/><circle cx="36.04" cy="15.65" opacity=".15" r="2.43"/><circle cx="44.26" cy="15.65" opacity=".15" r="2.43"/><circle cx="52.48" cy="15.65" opacity=".15" r="2.43"/><circle cx="3.15" cy="28.05" opacity=".15" r="2.43"/><circle cx="11.38" cy="28.05" opacity=".15" r="2.43"/><circle cx="19.6" cy="28.05" opacity=".15" r="2.43"/><circle cx="27.82" cy="28.05" opacity=".15" r="2.43"/><circle cx="36.04" cy="28.05" opacity=".15" r="2.43"/><circle cx="44.26" cy="28.05" opacity=".15" r="2.43"/><circle cx="52.48" cy="28.05" opacity=".15" r="2.43"/><circle cx="3.15" cy="40.44" opacity=".15" r="2.43"/><circle cx="11.38" cy="40.44" opacity=".15" r="2.43"/><circle cx="19.6" cy="40.44" opacity=".15" r="2.43"/><circle cx="27.82" cy="40.44" opacity=".15" r="2.43"/><circle cx="36.04" cy="40.44" opacity=".15" r="2.43"/><circle cx="44.26" cy="40.44" opacity=".15" r="2.43"/><circle cx="52.48" cy="40.44" opacity=".15" r="2.43"/></g></svg>