<svg id="Referral_CaseDetails_NotSelected" xmlns="http://www.w3.org/2000/svg" viewBox="0 0 16.55 16.55"><defs><style>.cls-1{fill:#fbbb00;}.cls-2{fill:#518ef8;}.cls-3{fill:#28b446;}.cls-4{fill:#f14336;}</style></defs><title>iScheduleMeeting_v6</title><path class="cls-1" d="M3.67,10l-.58,2.15-2.1,0A8.2,8.2,0,0,1,0,8.27a8.12,8.12,0,0,1,.93-3.8h0l1.87.34.82,1.87a4.91,4.91,0,0,0-.26,1.59A5,5,0,0,0,3.67,10Z"/><path class="cls-2" d="M16.4,6.73a7.88,7.88,0,0,1,.15,1.54A8.9,8.9,0,0,1,16.37,10a8.34,8.34,0,0,1-2.92,4.73h0l-2.36-.13-.33-2.08A5,5,0,0,0,12.88,10H8.46V6.73H16.4Z"/><path class="cls-3" d="M13.45,14.73h0A8.27,8.27,0,0,1,1,12.19L3.67,10a4.93,4.93,0,0,0,7.09,2.52Z"/><path class="cls-4" d="M13.55,1.9,10.87,4.1A4.92,4.92,0,0,0,3.62,6.68L.93,4.47h0A8.27,8.27,0,0,1,13.55,1.9Z"/></svg>