<?xml version="1.0" encoding="utf-8"?>
<!-- Generator: Adobe Illustrator 23.0.3, SVG Export Plug-In . SVG Version: 6.00 Build 0)  -->
<svg version="1.1" id="Layer_1" xmlns="http://www.w3.org/2000/svg" xmlns:xlink="http://www.w3.org/1999/xlink" x="0px" y="0px"
	 viewBox="0 0 28 45" style="enable-background:new 0 0 28 45;" xml:space="preserve">
<style type="text/css">
	.st0{fill:#007B76;}
</style>
<title>imcs_bgd_pattern_tile4</title>
<g>
	<path class="st0" d="M26.7,45h-0.4c-0.3-1.2-1.6-1.9-2.7-1.6c-0.8,0.2-1.5,0.8-1.7,1.6h-0.4c0.3-1.4,1.8-2.3,3.2-2
		C25.6,43.2,26.4,44,26.7,45z M24.6,10.1c0,2,1.3,3.7,3.4,4.3V14c-2.3-0.6-3.5-2.8-2.9-5c0.4-1.4,1.6-2.5,2.9-2.8V5.8
		C26,6.3,24.6,8.1,24.6,10.1L24.6,10.1z M22.2,30.7c-1.7,1.6-1.8,4.2-0.1,5.9c0,0,0,0,0.1,0.1c0.8,0.8,2,1.2,3.1,1.2
		c0.9,0,2-0.3,2.7-0.9v-0.3c-1.7,1.4-4,1.3-5.6-0.2c-1.7-1.5-1.7-4-0.1-5.5c0,0,0,0,0.1-0.1c0.7-0.7,1.9-1.2,2.9-1.1
		c1,0,2,0.4,2.7,1v-0.3c-0.7-0.6-1.8-0.9-2.7-0.9C24.2,29.6,23,30,22.2,30.7z M24.1,41.5c-2.1,0-3.8,1.5-4.1,3.5h0.4
		c0.3-2,2.3-3.3,4.3-3c1.6,0.2,2.8,1.5,3.1,3H28v-0.7C27.5,42.6,25.8,41.5,24.1,41.5z M25.9,10.1c0,1.3,0.8,2.5,2.1,2.9v-0.4
		c-1.5-0.6-2.2-2.2-1.6-3.7c0.3-0.7,0.8-1.2,1.6-1.5V7.1C26.8,7.6,25.9,8.8,25.9,10.1z M0,31.9v0.5c0.2,0.4,0.3,0.9,0.3,1.4
		S0.2,34.7,0,35.2v0.5c0.4-0.5,0.6-1.2,0.6-1.8C0.6,33,0.4,32.4,0,31.9z M24.1,44.3c-0.5,0-0.9,0.3-1.1,0.7h0.5
		c0.2-0.2,0.4-0.3,0.6-0.3s0.5,0.1,0.6,0.3h0.5C25,44.6,24.6,44.3,24.1,44.3z M24.9,0.5c0,0.4-0.4,0.8-0.8,0.8S23.2,1,23.2,0.5l0,0
		c0-0.2,0.1-0.4,0.2-0.5h-0.5c-0.1,0.2-0.2,0.3-0.1,0.5c0.1,0.7,0.7,1.2,1.3,1.1s1.1-0.5,1.1-1.1c0-0.2,0-0.3-0.1-0.5h-0.5
		C24.8,0.1,24.9,0.3,24.9,0.5z M4.5,10.1C4.5,8.4,3,6.9,1.1,7C0.8,6.9,0.4,7,0,7.1v0.4c0.4-0.2,0.8-0.2,1.1-0.2c1.7-0.1,3,1.2,3,2.8
		s-1.3,2.8-2.9,2.8l0,0c-0.4,0-0.9-0.1-1.2-0.2V13c0.4,0.1,0.9,0.2,1.2,0.2C3,13.2,4.5,11.8,4.5,10.1z M23.1,10.1
		c0,1.5,0.6,3,1.8,4.1c0.8,0.8,2,1.4,3.1,1.6v-0.3c-1-0.2-2.1-0.7-2.9-1.5c-2.2-2.1-2.3-5.5-0.1-7.7c0,0,0,0,0.1-0.1
		C25.9,5.5,27,4.9,28,4.7V4.4c-1.1,0.2-2.3,0.8-3.1,1.6C23.7,7.1,23.1,8.5,23.1,10.1L23.1,10.1z M12,1.8C12,3,11,4,9.7,4
		C8.6,4,7.6,3,7.6,1.8c0-0.7,0.4-1.4,1-1.8H7.9C7.5,0.5,7.2,1.1,7.2,1.8c0,1.4,1.2,2.6,2.7,2.6s2.7-1.2,2.7-2.6
		c0-0.7-0.3-1.3-0.8-1.8H11C11.7,0.4,12,1.1,12,1.8z M25.3,30.5c-1.9,0-3.3,1.4-3.3,3.2c0,1.8,1.5,3.2,3.3,3.2c1,0,2.1-0.5,2.7-1.4
		V35c-0.8,1.4-2.6,2-4.1,1.2c-1.5-0.8-2.1-2.5-1.2-4c0.8-1.4,2.6-2,4.1-1.2c0.5,0.3,1,0.7,1.2,1.2v-0.5C27.4,31,26.3,30.5,25.3,30.5
		z M9.9,0.6c0.7,0,1.2,0.5,1.2,1.2S10.5,3,9.9,3C9.1,3,8.6,2.4,8.6,1.8C8.6,1.1,9.1,0.6,9.9,0.6z M9,1.8c0,0.4,0.4,0.8,0.8,0.8
		c0.4,0,0.8-0.4,0.8-0.8S10.3,1,9.9,1C9.3,1,9,1.3,9,1.8L9,1.8z M27.1,10.1c0,0.7,0.3,1.3,0.9,1.7v-0.4c-0.7-0.6-0.8-1.7-0.2-2.4
		c0.1-0.1,0.1-0.1,0.2-0.2V8.4C27.4,8.7,27.1,9.4,27.1,10.1z M5.8,10.1c0-2.5-2.1-4.4-4.7-4.4l0,0c-0.4,0-0.8,0-1.1,0.2v0.3
		C0.4,6,0.8,6,1.1,6c2.4,0,4.3,1.8,4.3,4.1s-1.9,4.1-4.3,4.1l0,0c-0.4,0-0.8-0.1-1.1-0.2v0.3c0.4,0.1,0.8,0.2,1.1,0.1
		C3.7,14.5,5.8,12.5,5.8,10.1L5.8,10.1z M13.6,1.8c-0.1,2-1.9,3.5-3.9,3.4c-2-0.1-3.4-1.5-3.5-3.4c0-0.6,0.2-1.3,0.5-1.8H6.1
		C5.8,0.6,5.7,1.2,5.7,1.8c0,2.2,1.9,4,4.1,4S14,4,14,1.8c0-0.6-0.1-1.3-0.4-1.8h-0.5C13.4,0.5,13.6,1.2,13.6,1.8z M26.3,0.5
		c-0.1,1.2-1.1,2.1-2.4,2c-1.1-0.1-2.1-0.9-2.1-2c0-0.2,0-0.3,0.1-0.5h-0.4c0,0.2,0,0.3,0,0.5c0,1.4,1.2,2.6,2.7,2.6l0,0
		C25.7,3.1,27,2,27,0.5c0-0.2,0-0.3-0.1-0.5h-0.6C26.3,0.2,26.3,0.3,26.3,0.5z M1.1,11c-0.6,0-1-0.4-1-1s0.4-1,1-1s1,0.4,1,1
		C2.3,10.6,1.8,11,1.1,11L1.1,11z M1.1,10.7c0.4,0,0.6-0.3,0.6-0.6l0,0c0-0.3-0.3-0.6-0.6-0.6s-0.6,0.3-0.6,0.6l0,0
		C0.5,10.4,0.8,10.7,1.1,10.7L1.1,10.7L1.1,10.7z M0,45h0.2c0-0.2-0.1-0.5-0.2-0.7V45z M27.7,33.7c0,1.3-1,2.3-2.4,2.3
		c-1.3,0-2.4-1-2.4-2.3s1-2.3,2.4-2.3l0,0C26.5,31.4,27.6,32.4,27.7,33.7z M27.4,33.7c0-1.1-0.9-2.1-2.1-2.1c-1.1,0-2.2,0.9-2.2,2
		s0.9,2.1,2.1,2.1l0,0C26.4,35.7,27.4,34.8,27.4,33.7L27.4,33.7z M26.9,33.7c0,0.8-0.7,1.5-1.6,1.5c-0.8,0-1.6-0.7-1.6-1.5
		s0.7-1.5,1.6-1.5l0,0C26.1,32.2,26.8,32.9,26.9,33.7C26.8,33.7,26.9,33.7,26.9,33.7z M26.5,33.7c0-0.7-0.5-1.2-1.2-1.3
		c-0.7,0-1.2,0.5-1.3,1.2c0,0.7,0.5,1.2,1.2,1.3l0,0C25.9,34.9,26.5,34.4,26.5,33.7z M1.7,33.7c0-1.1-0.4-2.2-1.2-3
		c-0.1-0.1-0.3-0.2-0.4-0.3v0.3l0.2,0.2c0.7,0.7,1.2,1.7,1.2,2.8S1,35.8,0.2,36.5L0,36.6V37c0.1-0.1,0.2-0.2,0.4-0.3
		C1.2,35.9,1.7,34.8,1.7,33.7L1.7,33.7z M0,20.4V21c0.8,0.9,1.2,2.1,1.2,3.3c0,1.2-0.4,2.4-1.2,3.3v0.6c1-1,1.7-2.4,1.7-3.9
		C1.7,22.9,1,21.4,0,20.4z M26,33.7c0,0.4-0.3,0.7-0.7,0.7l0,0c-0.4,0-0.7-0.3-0.7-0.7s0.3-0.7,0.7-0.7C25.7,33,26,33.3,26,33.7
		L26,33.7z M25.7,33.7c0-0.3-0.2-0.5-0.5-0.5c-0.3,0-0.5,0.2-0.5,0.5s0.2,0.5,0.5,0.5C25.5,34.1,25.7,33.9,25.7,33.7z M18.5,32.6
		c0,1.8-1.5,3.2-3.2,3.2c-1.9,0-3.3-1.4-3.3-3.1s1.5-3.2,3.2-3.2l0,0C17,29.4,18.5,30.8,18.5,32.6L18.5,32.6z M18.1,32.6
		c0-1.6-1.2-2.9-2.9-2.9s-3,1.2-3,2.8c0,1.6,1.2,2.9,2.9,2.9l0,0C16.8,35.4,18.1,34.1,18.1,32.6L18.1,32.6z M8.9,11.2
		c0-1.3,1-2.3,2.4-2.3s2.4,1,2.4,2.3s-1,2.3-2.4,2.3l0,0C10,13.5,8.9,12.4,8.9,11.2z M9.1,11.2c0,1.1,0.9,2.1,2.1,2.1s2.2-0.9,2.2-2
		s-0.9-2.1-2.1-2.1h-0.1C10.1,9.2,9.1,10.1,9.1,11.2z M19.8,32.6c0,2.5-2.1,4.5-4.6,4.5c-2.6,0-4.7-2-4.7-4.4c0-2.5,2.1-4.5,4.6-4.5
		c0,0,0,0,0.1,0C17.7,28.1,19.8,30.1,19.8,32.6z M19.5,32.6c0-2.3-1.9-4.1-4.3-4.2c-2.4,0-4.3,1.8-4.4,4.1c0,2.3,1.9,4.1,4.3,4.2
		l0,0C17.5,36.7,19.5,34.8,19.5,32.6L19.5,32.6z M17.3,32.6c0,1.1-0.9,2.1-2.1,2.1s-2.2-0.9-2.2-2c0-1.1,0.9-2.1,2.1-2.1
		c0,0,0,0,0.1,0C16.4,30.6,17.3,31.5,17.3,32.6z M17,32.6c0-1-0.7-1.7-1.8-1.8s-1.8,0.7-1.9,1.7c0,1,0.7,1.7,1.8,1.8l0,0
		C16.2,34.3,17,33.5,17,32.6z M8,11.2C8,9.4,9.4,8,11.3,7.9c1.9,0,3.3,1.4,3.4,3.2c0.1,1.8-1.5,3.2-3.3,3.3l0,0
		C9.4,14.4,8,13,8,11.2z M8.2,11.2c0,1.7,1.3,3,3,3.1s3.1-1.3,3.2-2.9c0.1-1.6-1.3-3-3-3.1c0,0,0,0-0.1,0C9.6,8.2,8.2,9.6,8.2,11.2z
		 M10.6,11.2c0-0.4,0.3-0.7,0.7-0.7c0.4,0,0.7,0.2,0.8,0.6c0,0.4-0.2,0.7-0.6,0.8c-0.1,0-0.1,0-0.2,0C10.9,11.9,10.6,11.6,10.6,11.2
		L10.6,11.2z M10.8,11.2c0,0.3,0.2,0.5,0.5,0.5s0.5-0.2,0.5-0.5s-0.2-0.5-0.5-0.5C11,10.7,10.8,10.9,10.8,11.2z M12.8,23
		c0,1.4-1.1,2.6-2.7,2.6c-1.5,0-2.7-1.1-2.7-2.6c0-1.4,1.1-2.6,2.7-2.6l0,0C11.5,20.4,12.8,21.6,12.8,23z M12.2,23
		c0-1.2-0.9-2.2-2.2-2.2s-2.3,0.9-2.3,2.1s0.9,2.2,2.2,2.2l0,0C11.3,25.2,12.2,24.2,12.2,23C12.3,23,12.3,23,12.2,23z M16.7,12.4
		c0-0.6,0.4-1,1-1s1,0.4,1,1s-0.4,1-1,1S16.7,13,16.7,12.4z M17.1,12.4c0,0.4,0.3,0.6,0.6,0.6c0.3,0,0.6-0.3,0.6-0.6
		s-0.3-0.6-0.6-0.6C17.3,11.8,17,12.1,17.1,12.4z M16.2,32.6c0,0.6-0.4,1-1,1c-0.6,0-1-0.4-1-1s0.4-1,1-1
		C15.8,31.6,16.2,32,16.2,32.6z M15.9,32.6c0-0.4-0.3-0.6-0.6-0.6c-0.4,0-0.6,0.3-0.6,0.6c0,0.4,0.3,0.6,0.6,0.6
		C15.6,33.2,15.9,32.9,15.9,32.6z M9.7,11.2c0-0.8,0.7-1.5,1.6-1.5s1.6,0.7,1.6,1.5s-0.7,1.5-1.6,1.5l0,0C10.5,12.7,9.7,12,9.7,11.2
		L9.7,11.2z M10,11.2c0,0.7,0.5,1.3,1.2,1.3c0.7,0,1.3-0.5,1.3-1.2S12,10,11.3,10l0,0C10.6,10,10.1,10.5,10,11.2z M11.3,23
		c0,0.7-0.5,1.2-1.2,1.3c-0.7,0-1.2-0.5-1.3-1.2c0-0.7,0.5-1.2,1.2-1.3l0,0C10.8,21.8,11.3,22.3,11.3,23z M10.9,23
		c0-0.4-0.4-0.8-0.8-0.8c-0.4,0-0.8,0.4-0.8,0.8s0.4,0.8,0.8,0.8l0,0C10.5,23.8,10.9,23.4,10.9,23z M9.9,39.5
		c-2.1,0-3.9,0.8-5.4,2.2c-0.9,0.9-1.7,2-2,3.3h0.4c0.3-1.2,0.9-2.1,1.9-3c2.8-2.7,7.4-2.7,10.3,0c0.9,0.8,1.6,1.8,1.9,3h0.4
		c-0.3-1.3-1-2.3-2-3.3C13.8,40.3,11.8,39.5,9.9,39.5L9.9,39.5z M2.7,34.9c0-0.6,0.4-1,1-1s1,0.4,1,1s-0.4,1-1,1S2.7,35.5,2.7,34.9z
		 M3,34.9c0,0.4,0.3,0.6,0.6,0.6c0.4,0,0.6-0.3,0.6-0.6c0-0.4-0.3-0.6-0.6-0.6C3.3,34.3,3.1,34.6,3,34.9z M9.9,42.8
		c-1.6,0-3,0.8-3.7,2.2h0.5c1-1.7,3.3-2.2,5.1-1.2c0.5,0.3,0.9,0.7,1.2,1.2h0.5C12.9,43.7,11.4,42.8,9.9,42.8z M9.9,41.2
		c-2.5,0-4.7,1.5-5.5,3.8h0.5c1-2.7,4.3-4,6.9-3c1.5,0.5,2.6,1.6,3.1,3h0.5C14.5,42.7,12.3,41.2,9.9,41.2z M3.3,10.1
		c0-1.1-0.9-2.1-2.2-2C0.7,8,0.3,8.2,0,8.4v0.4c0.3-0.3,0.7-0.4,1.1-0.4c0.9,0,1.8,0.8,1.8,1.7s-0.8,1.7-1.8,1.7
		c-0.4,0-0.8-0.2-1.1-0.4v0.4c0.3,0.2,0.7,0.3,1.1,0.3C2.4,12.1,3.3,11.2,3.3,10.1L3.3,10.1z M0,1.7c0.1-0.4,0.2-0.8,0.2-1.2
		c0-0.2,0-0.3,0-0.5H0V1.7z M28,24.3c0,2.2-1.9,4-4.1,4s-4.1-1.8-4.1-4s1.9-4,4.1-4S28,22.1,28,24.3z M27.6,24.3
		c0-2-1.7-3.6-3.7-3.6s-3.7,1.6-3.7,3.6s1.7,3.6,3.7,3.6c0,0,0,0,0.1,0C25.9,27.9,27.6,26.3,27.6,24.3z M25.1,24.3
		c0,0.7-0.5,1.2-1.2,1.3c-0.7,0-1.2-0.5-1.3-1.2c0-0.7,0.5-1.2,1.2-1.3l0,0C24.6,23.1,25.1,23.7,25.1,24.3z M24.7,24.3
		c0-0.4-0.4-0.8-0.8-0.8S23,23.9,23,24.3s0.4,0.8,0.8,0.8l0,0C24.3,25.1,24.7,24.8,24.7,24.3z M1.2,0C1.1,0.6,1,1.2,1,1.8
		c0,0.4,0,0.8,0.1,1.3h0.1c0.4,0,0.7,0,1,0.1C2.2,2.7,2.2,2.3,2.2,1.8c0-0.6,0.1-1.2,0.2-1.8h0.4C2.7,0.6,2.6,1.2,2.6,1.8
		c0,0.5,0.1,0.9,0.2,1.4c0.5,0.1,1,0.3,1.6,0.5C4.1,3.1,3.9,2.5,3.9,1.8C3.9,1.2,4,0.6,4.3,0h0.5C4.3,1.3,4.4,2.8,5,4.1
		c0.5,0.3,0.9,0.6,1.3,1s0.7,0.9,1,1.3c0.4,0.2,0.7,0.3,1.1,0.4c0.8-0.4,1.8-0.7,2.7-0.7c0.4,0,0.8,0.1,1.2,0.2
		c1.7-0.9,2.7-2.6,2.7-4.5c0-0.6-0.1-1.2-0.3-1.8h0.5c0.2,0.6,0.3,1.2,0.3,1.8c0,1.9-0.9,3.6-2.6,4.6c0.5,0.2,0.9,0.4,1.3,0.7
		c0.2-0.1,0.3-0.3,0.5-0.4c1.3-1.3,2.2-3,2.2-4.9c0-0.6-0.1-1.2-0.3-1.8h0.4c0.2,0.6,0.2,1.2,0.2,1.8c0,1.9-0.8,3.8-2.3,5.2
		c-0.1,0.1-0.3,0.3-0.5,0.4c0.1,0.1,0.1,0.1,0.2,0.2c0.4,0.2,0.5,0.4,0.7,0.6c0.2-0.1,0.4-0.3,0.5-0.5c1.7-1.6,2.6-3.7,2.6-6
		c0-0.6-0.1-1.1-0.2-1.7h0.4c0.1,0.6,0.2,1.1,0.2,1.7c0,0.2,0,0.4,0,0.7c0.8,1.8,2.5,2.9,4.5,3.1c0.1-0.2,0.3-0.3,0.5-0.5
		c0.3-0.3,0.5-0.5,0.8-0.7c-0.3,0.1-0.6,0.1-0.8,0.1c-2.3,0-4.1-1.8-4.1-4c0-0.2,0-0.2,0-0.4h0.4c0,0.2,0,0.2,0,0.4
		c0.1,2,1.9,3.5,3.9,3.4c1.9-0.1,3.4-1.6,3.5-3.4c0-0.2,0-0.2,0-0.4H28v1.6c-0.2,0.7-0.6,1.2-1.1,1.7C27.3,3.2,27.6,3.1,28,3v0.3
		c-3.3,0.5-5.8,3.3-5.8,6.6c0,2.2,1.1,4.3,3.1,5.5c0.8,0.5,1.8,0.8,2.7,1V17c-0.9-0.2-1.9-0.5-2.6-1c-0.5-0.1-1-0.1-1.6-0.1
		c-2.3,0-4.6,0.9-6.2,2.5S15,22.1,15,24.3c0,0.4,0,0.8,0.1,1.3h0.1c0.3,0,0.7,0,1,0.1c-0.1-0.4-0.1-0.9-0.1-1.3
		c0-1.9,0.8-3.8,2.3-5.2c2.6-2.5,6.4-2.9,9.5-1v0.5c-2.9-2-6.7-1.7-9.2,0.7c-1.3,1.3-2.1,3.1-2.1,4.9c0,0.5,0,0.9,0.1,1.4
		c0.5,0.1,1,0.3,1.6,0.5c-0.2-0.6-0.4-1.3-0.4-1.9c0-3.1,2.7-5.6,5.9-5.6l0,0c1.6,0,3,0.6,4.1,1.7V21c-2-2.2-5.4-2.5-7.7-0.7
		c-1.2,1-2,2.4-2,3.9c0,0.8,0.2,1.5,0.5,2.2c0.5,0.3,0.9,0.6,1.5,1c0.4,0.4,0.7,0.8,1,1.3c0.4,0.2,0.7,0.3,1.1,0.4
		c0.8-0.4,1.8-0.7,2.7-0.7c0.4,0,0.8,0.1,1.2,0.1c0.6-0.3,1.1-0.7,1.6-1.2v0.6c-0.3,0.3-0.6,0.5-0.9,0.7c0.3,0.1,0.6,0.3,0.9,0.4
		v0.3c-0.8-0.5-1.8-0.8-2.7-0.8c-1.3,0-2.6,0.5-3.5,1.4c-2,1.8-2.1,5.1-0.1,6.9l0,0c0.9,0.9,2.3,1.5,3.6,1.5c0.9,0,1.9-0.2,2.7-0.7
		V38c-0.4,0.3-0.9,0.5-1.5,0.6c0.5,0.2,1,0.4,1.5,0.7v0.5c-0.8-0.5-1.7-0.8-2.6-1h-0.1c-0.4,0-0.8,0-1.1-0.1h-0.1
		c-1.9,0-3.7,0.7-5.1,2c-0.5,0.5-0.9,1-1.2,1.6c0.3,0.5,0.6,1,0.8,1.5c1-2.9,4.4-4.5,7.5-3.5c0.7,0.3,1.3,0.7,2,1.2V42
		c-2.1-2.1-5.4-2.2-7.6-0.3c-0.8,0.7-1.3,1.7-1.6,2.7c0,0.2,0.1,0.5,0.1,0.6h-0.4c-0.5-2.3-2.1-4.4-4.3-5.6c-1-0.1-2-0.5-2.8-1
		c-0.5-0.1-1-0.1-1.6-0.1c-2.3,0-4.6,0.9-6.2,2.5c-1.2,1.1-2.1,2.6-2.4,4.2H0.8c0.1-0.4,0.2-0.8,0.3-1.2C0.9,43.1,0.5,42.5,0,42
		v-0.6c0.6,0.5,1,1.1,1.3,1.8c0.2-0.5,0.5-0.9,0.8-1.4c-0.3-0.4-0.6-0.9-1-1.2C0.8,40.3,0.4,40,0,39.7v-0.5c0.5,0.3,1,0.7,1.5,1.1
		c0.4,0.4,0.7,0.7,1,1.2c0.2-0.3,0.5-0.6,0.7-0.8c-0.3-0.4-0.6-0.7-0.9-1.1C1.7,38.9,0.8,38.4,0,38v-0.3c0.3-0.2,0.6-0.4,0.8-0.6
		c0.9-0.9,1.5-2.1,1.5-3.4c0-1.3-0.5-2.5-1.5-3.4c-0.2-0.2-0.5-0.4-0.8-0.6v-0.3c0.1,0.1,0.3,0.2,0.4,0.3c0.2-0.1,0.3-0.3,0.5-0.5
		c1.3-1.3,2.2-3,2.2-4.9c0-1.8-0.7-3.6-2.1-4.9c-0.3-0.3-0.6-0.5-1-0.8v-0.5c0.4,0.3,0.8,0.6,1.2,1c1.5,1.4,2.3,3.2,2.3,5.2
		c0,1.9-0.8,3.8-2.3,5.1c-0.1,0.1-0.3,0.3-0.5,0.4L1,30.1c0.2,0.2,0.4,0.4,0.5,0.6c0.2-0.1,0.4-0.3,0.5-0.5c1.7-1.6,2.6-3.7,2.6-5.9
		s-0.9-4.4-2.6-5.9c-0.6-0.5-1.2-1-2-1.4H0v-0.3c0.4,0.1,0.8,0.1,1.1,0.1c1.9,0,3.6-0.7,5-2c0.3-0.2,0.5-0.5,0.7-0.8
		c-0.2-0.3-0.3-0.6-0.5-0.9c-0.2,0.4-0.5,0.8-0.9,1.1c-1.1,1.1-2.7,1.7-4.3,1.7c-0.4,0-0.7-0.1-1.1-0.2v-0.3
		c1.9,0.4,3.7-0.2,5.2-1.5c0.4-0.4,0.7-0.8,1-1.3c-0.1-0.5-0.2-1-0.2-1.5c0-0.9,0.2-1.8,0.7-2.5C6.5,7.7,6,6.9,5.3,6.2
		c-1-1-2.5-1.6-4-1.6c-0.4,0-0.9,0-1.2,0.1V4.4c0.4-0.1,0.9-0.1,1.2-0.1c1.7,0,3.1,0.6,4.3,1.7c0.7,0.6,1.1,1.4,1.5,2.3
		C7.2,8,7.4,7.8,7.6,7.6l0.1-0.1C6.5,5,4,3.4,1.1,3.4c-0.4,0-0.8,0-1.1,0.1V3.2c0.2,0,0.4-0.1,0.6-0.1c0-0.4,0-0.9,0-1.3
		c0-0.6,0.1-1.2,0.2-1.8C0.8,0,1.2,0,1.2,0z M21.8,29.5l0.1,0.3c0.1-0.1,0.1-0.1,0.2-0.1L21.8,29.5z M24.3,15.5h0.3l-0.2-0.2
		C24.4,15.4,24.4,15.5,24.3,15.5L24.3,15.5z M6.5,14.9c0.2-0.1,0.5-0.2,0.8-0.3l-0.3-0.3C6.9,14.5,6.7,14.6,6.5,14.9L6.5,14.9z
		 M2.4,18.1c0.3-0.5,0.7-0.9,1.1-1.3c0,0,0,0,0.1-0.1c-0.7,0.3-1.6,0.4-2.4,0.4H1.1C1.6,17.4,2,17.7,2.4,18.1z M3.4,19.3
		c0.3-0.5,0.7-1,1.1-1.5c1.2-1.1,2.8-1.9,4.5-2.1c-0.5-0.2-0.9-0.5-1.3-0.9c-2.1,0.5-3.8,1.8-5,3.5C2.9,18.7,3.2,19,3.4,19.3
		L3.4,19.3z M4.5,27.4c0.1,0.2,0.3,0.3,0.4,0.5c0.9,0.9,2.2,1.6,3.5,1.9c0.2-0.4,0.4-0.8,0.7-1.2c-1.8-0.2-3.3-1.3-4.3-2.8
		C4.9,26.3,4.7,26.9,4.5,27.4L4.5,27.4z M3.7,28.9L3.7,28.9c1.1,1.2,2.6,1.9,4.1,2.3c0.1-0.3,0.2-0.7,0.3-1c-1.3-0.3-2.7-1-3.7-2
		l-0.3-0.3C4,28.2,3.9,28.6,3.7,28.9L3.7,28.9z M2.2,30.8C4.4,30,6.8,31,7.9,33c0-0.1,0-0.3,0-0.4c0-0.3,0-0.7,0.1-1
		c-1.6-0.4-3-1.1-4.1-2.1l0,0H3.4c-0.3,0.4-0.6,0.8-0.9,1.1L2.2,30.8z M2.2,35.7c0.4,0.8,1.5,1.2,2.4,0.8s1.2-1.4,0.8-2.3
		C5,33.4,3.9,33,3,33.4c-0.1,0.1-0.3,0.2-0.4,0.3l0,0C2.6,34.4,2.4,35,2.2,35.7L2.2,35.7z M1.5,36.7c1,1.2,2.9,1.4,4.1,0.4
		s1.5-2.8,0.4-4c-0.8-1-2.4-1.3-3.6-0.7c0.1,0.3,0.1,0.5,0.1,0.8c0.9-0.6,2.3-0.3,2.9,0.6s0.3,2.2-0.6,2.8C3.8,37.2,2.6,37,2,36
		C1.9,36.3,1.7,36.5,1.5,36.7z M3.7,39C6.1,39,8,37.2,8,34.9s-1.9-4.1-4.3-4.1l0,0c-0.6,0-1.2,0.1-1.9,0.4c0.2,0.3,0.3,0.6,0.4,0.9
		c0.4-0.2,0.9-0.3,1.5-0.3c1.8,0,3.2,1.4,3.2,3.2c0,1.7-1.5,3.1-3.3,3.1c-0.9,0-1.8-0.4-2.4-1.1L1,37.2c-0.1,0.1-0.3,0.3-0.5,0.4
		c0.1,0.1,0.2,0.2,0.3,0.4c0.3,0.2,0.6,0.4,0.8,0.6C2.4,38.9,3,39,3.7,39z M5.5,39c-0.5,0.2-1.1,0.3-1.8,0.3c-0.4,0-0.8-0.1-1.2-0.2
		l0.1,0.1c0.3,0.3,0.6,0.7,0.9,1.1C4.1,39.8,4.8,39.4,5.5,39z M8.4,38.1c0.3-0.5,0.6-1,0.8-1.5c-0.3-0.5-0.6-1-0.8-1.5
		c-0.1,1.5-1,2.9-2.4,3.7C6.7,38.4,7.6,38.2,8.4,38.1L8.4,38.1z M10.2,37.6l-0.1-0.1c-0.2-0.2-0.4-0.4-0.5-0.6
		c-0.2,0.4-0.3,0.8-0.6,1.1c0.3,0,0.6,0,1,0h0.1L10.2,37.6z M10.6,38l-0.2-0.2c0,0,0,0.1-0.1,0.2H10.6L10.6,38z M16.4,40.5
		c0.3-0.5,0.7-0.9,1.1-1.3l0.1-0.1c-0.7,0.2-1.6,0.4-2.4,0.4h-0.1C15.6,39.8,16,40.2,16.4,40.5L16.4,40.5z M21.7,37.4
		c-1.5,0.4-2.8,1.1-3.9,2.2c-0.4,0.4-0.8,0.9-1.1,1.3c0.3,0.3,0.5,0.6,0.7,0.9c0.3-0.5,0.7-1,1.1-1.5c1.2-1.1,2.8-1.9,4.5-2.1
		C22.5,38,22.1,37.7,21.7,37.4L21.7,37.4z M21.1,36.7c-0.1,0.2-0.3,0.4-0.5,0.6c0.2-0.1,0.5-0.2,0.8-0.3L21.1,36.7z M20.7,31.2
		c-0.2-0.9-0.7-1.8-1.5-2.5c-2.3-2.1-5.8-2.1-8.1,0c-2.2,2.1-2.3,5.5-0.1,7.7c0,0,0,0,0.1,0.1c2.2,2.2,5.8,2.2,8.1,0
		c0.4-0.4,0.7-0.8,1-1.3c-0.1-0.5-0.2-1-0.2-1.5C20,32.8,20.2,31.9,20.7,31.2z M10.3,27.9c-2.7,2.5-2.7,6.7-0.1,9.3l0.1,0.1
		c2.7,2.6,7.2,2.6,9.9,0c0.3-0.3,0.5-0.5,0.7-0.8c-0.2-0.3-0.3-0.6-0.5-0.9c-0.2,0.4-0.5,0.8-0.9,1.1c-2.4,2.3-6.2,2.3-8.6,0
		c-2.4-2.2-2.4-5.9-0.1-8.1c0,0,0,0,0.1-0.1c2.4-2.3,6.2-2.3,8.6,0c0.7,0.6,1.1,1.4,1.5,2.3c0.2-0.2,0.3-0.4,0.5-0.6l0.1-0.1
		c-0.3-0.8-0.8-1.6-1.6-2.2C17.4,25.3,13,25.3,10.3,27.9z M15.1,21.3c-1-2.7-4.1-4.1-6.9-3.1c-1.8,0.6-3,2-3.4,3.8
		c0.2,0.8,0.3,1.6,0.3,2.4c0,0.2,0,0.5,0,0.7c0.8,1.8,2.5,3,4.5,3.1c0.1-0.2,0.3-0.3,0.5-0.5c0.3-0.3,0.6-0.5,0.9-0.7
		c-0.3,0-0.6,0-0.9,0c-2.3,0-4.1-1.8-4.1-4s1.9-4,4.1-4s4.1,1.8,4.1,4c0,1.1-0.5,2.2-1.3,2.9c0.6-0.2,1.2-0.3,1.9-0.4
		C14.4,24.1,14.6,22.6,15.1,21.3L15.1,21.3z M13.8,23c0-2-1.7-3.6-3.7-3.6S6.3,21,6.3,23s1.7,3.6,3.7,3.6l0,0
		C12.1,26.6,13.8,25,13.8,23z M16.2,19.4c-0.3-0.4-0.6-0.9-1-1.2c-1-1-2.3-1.6-3.7-1.9h-0.1c-0.4,0-0.7,0-1.1-0.1h-0.1
		c-1.9,0-3.7,0.7-5.1,2c-0.5,0.5-0.9,1-1.2,1.5c0.3,0.5,0.6,1,0.8,1.5c1-2.9,4.4-4.5,7.5-3.5c1.6,0.5,2.7,1.6,3.4,3
		C15.6,20.2,15.9,19.8,16.2,19.4z M17.2,18.1c-0.3-0.4-0.6-0.7-0.9-1.1c-0.6-0.6-1.5-1.2-2.3-1.6c-0.4,0.3-0.9,0.5-1.5,0.6
		c1.1,0.4,2.1,0.9,2.9,1.7c0.4,0.4,0.7,0.7,1,1.2C16.7,18.7,17,18.4,17.2,18.1L17.2,18.1z M19.5,16.5c-0.5,0.2-1.1,0.3-1.8,0.3
		c-0.4,0-0.8-0.1-1.2-0.2l0.1,0.1c0.3,0.3,0.6,0.7,0.9,1.1C18.1,17.3,18.8,16.9,19.5,16.5L19.5,16.5z M23.4,14.4
		c-0.2,0.4-0.4,0.8-0.6,1.1c0.3,0,0.6,0,1,0l0,0c0.1-0.1,0.1-0.2,0.2-0.4L24,15C23.9,14.8,23.6,14.6,23.4,14.4L23.4,14.4z M20,16.3
		c0.7-0.3,1.6-0.6,2.4-0.7c0.3-0.5,0.6-1,0.8-1.5c-0.3-0.5-0.6-1-0.8-1.5C22.3,14.1,21.4,15.5,20,16.3L20,16.3z M18.5,4.9l0.4,0.4
		c0.9,0.9,2.2,1.6,3.5,1.8c0.2-0.4,0.4-0.9,0.7-1.2c-1.8-0.2-3.3-1.3-4.3-2.8C18.9,3.8,18.7,4.4,18.5,4.9z M17.7,6.4L17.7,6.4
		c1.2,1.1,2.6,1.9,4.1,2.2c0.1-0.3,0.2-0.7,0.3-1c-1.3-0.3-2.7-1-3.7-1.9c-0.1-0.1-0.2-0.2-0.3-0.3C18.1,5.7,17.9,6.1,17.7,6.4z
		 M16.2,8.3c0.5-0.2,1-0.3,1.6-0.3c1.8,0,3.3,1,4.1,2.5c0-0.1,0-0.3,0-0.4c0-0.3,0-0.7,0.1-1c-1.6-0.3-3-1-4.3-2.1h-0.4
		c-0.3,0.4-0.6,0.8-0.9,1.1L16.2,8.3z M15.9,8.8c0.2,0.3,0.3,0.6,0.4,0.9c0.4-0.2,0.9-0.3,1.5-0.3c1.8-0.1,3.3,1.2,3.4,3
		c0.1,1.8-1.2,3.2-3.1,3.3c-0.1,0-0.2,0-0.4,0c-0.9,0-1.9-0.4-2.5-1.1c-0.1,0.1-0.1,0.2-0.2,0.2l-0.4,0.3c0.1,0.1,0.2,0.2,0.3,0.3
		c0.3,0.2,0.6,0.4,0.8,0.6c2.1,1.1,4.7,0.3,5.8-1.6c1.1-2,0.3-4.5-1.7-5.6c-0.6-0.3-1.3-0.5-2.1-0.5C17.1,8.3,16.5,8.5,15.9,8.8z
		 M16.6,11.2c0,0.7-0.1,1.4-0.4,2c0.4,0.8,1.5,1.2,2.4,0.8c0.8-0.4,1.2-1.4,0.8-2.3c-0.4-0.8-1.5-1.2-2.4-0.8
		C16.9,11,16.7,11.1,16.6,11.2z M16,13.5c-0.1,0.2-0.3,0.5-0.5,0.7c0.5,0.6,1.3,1,2.3,1c1.7,0,2.9-1.3,2.9-2.8s-1.3-2.8-2.9-2.8
		c-0.5,0-0.9,0.1-1.3,0.3c0.1,0.3,0.1,0.5,0.1,0.8c0.3-0.2,0.7-0.4,1.2-0.4c1.1,0,2.1,1,2,2.1s-1,2-2.2,1.9
		C16.9,14.4,16.4,14,16,13.5L16,13.5z M7.8,7.1l0.1,0.3C8,7.3,8,7.3,8.1,7.2L7.8,7.1z M7.7,7.8c-2,1.8-2,4.9,0,6.7l0,0
		c2,1.9,5.1,1.9,7.1,0s2-4.9,0-6.8l0,0C12.9,5.9,9.7,5.9,7.7,7.8z M6.8,11.2c0-1.1,0.4-2.2,1.2-3c1.8-1.6,4.5-1.6,6.2,0
		c1.7,1.6,1.7,4.3,0,5.9l0,0c-1.8,1.6-4.5,1.6-6.2,0C7.4,13.3,6.9,12.3,6.8,11.2z M7.2,11.2c0,1.1,0.4,2.1,1.2,2.8
		c0.7,0.7,1.9,1.2,2.9,1.1c1.1,0,2.2-0.4,2.9-1.1c0.8-0.7,1.2-1.7,1.2-2.8S15,9.1,14.2,8.4c-1.7-1.5-4.3-1.5-5.8,0
		C7.6,9.1,7.2,10.1,7.2,11.2z M26.5,24.3c0,1.4-1.1,2.6-2.7,2.6c-1.5,0-2.7-1.1-2.7-2.6c0-1.4,1.1-2.6,2.7-2.6l0,0
		C25.3,21.8,26.5,22.9,26.5,24.3z M26,24.3c0-1.2-0.9-2.2-2.2-2.2c-1.2,0-2.3,0.9-2.3,2.1s0.9,2.2,2.2,2.2c0,0,0,0,0.1,0
		C25.1,26.5,26,25.5,26,24.3z M7.9,45h0.7c0.7-0.4,1.7-0.4,2.4,0h0.7c-0.5-0.5-1.1-0.8-1.9-0.8C9.1,44.3,8.4,44.5,7.9,45z"/>
</g>
</svg>
