<?xml version="1.0" encoding="utf-8"?>
<!-- Generator: Adobe Illustrator 21.0.0, SVG Export Plug-In . SVG Version: 6.00 Build 0)  -->
<svg version="1.1" id="Layer_1" xmlns="http://www.w3.org/2000/svg" xmlns:xlink="http://www.w3.org/1999/xlink" x="0px" y="0px"
	 viewBox="0 0 157.8 41.8" style="enable-background:new 0 0 157.8 41.8;" xml:space="preserve">
<style type="text/css">
	.st0{opacity:0.67;fill:#9D5FA7;enable-background:new    ;}
	.st1{opacity:0.6;fill:#6F53A2;enable-background:new    ;}
	.st2{fill:none;stroke:#FFFFFF;stroke-width:0.153;stroke-miterlimit:10;}
	.st3{opacity:0.4;fill:#5553A3;enable-background:new    ;}
	.st4{opacity:0.3;fill:#7752A2;enable-background:new    ;}
	.st5{opacity:0.98;fill:#9D5FA7;enable-background:new    ;}
	.st6{opacity:0.66;fill:#8651A0;enable-background:new    ;}
	.st7{opacity:0.88;fill:#9551A0;enable-background:new    ;}
	.st8{opacity:0.6;}
	.st9{fill:#9551A0;}
	.st10{fill:none;stroke:#FFFFFF;stroke-width:0.1;stroke-miterlimit:10;}
	.st11{opacity:0.34;fill:#5553A3;enable-background:new    ;}
	.st12{opacity:0.5;fill:#6853A3;enable-background:new    ;}
	.st13{opacity:0.55;fill:#9551A0;enable-background:new    ;}
	.st14{opacity:0.55;fill:none;stroke:#FFFFFF;stroke-width:0.153;stroke-miterlimit:10;enable-background:new    ;}
	.st15{opacity:0.86;fill:#9D5FA7;enable-background:new    ;}
	.st16{opacity:0.6;fill:#27AAAB;enable-background:new    ;}
	.st17{fill:none;stroke:#FFFFFF;stroke-width:8.800000e-02;stroke-miterlimit:10;}
	.st18{opacity:0.4;fill:#27AAAB;enable-background:new    ;}
	.st19{opacity:0.3;fill:#27AAAB;enable-background:new    ;}
	.st20{opacity:0.3;fill:none;stroke:#FFFFFF;stroke-width:8.800000e-02;stroke-miterlimit:10;enable-background:new    ;}
	.st21{opacity:0.98;fill:#27AAAB;enable-background:new    ;}
	.st22{opacity:0.66;fill:#27AAAB;enable-background:new    ;}
	.st23{opacity:0.88;fill:#27AAAB;enable-background:new    ;}
	.st24{fill:#27AAAB;}
	.st25{opacity:0.34;fill:#27AAAB;enable-background:new    ;}
	.st26{opacity:0.48;fill:#27AAAB;enable-background:new    ;}
	.st27{opacity:0.55;fill:#27AAAB;enable-background:new    ;}
	.st28{opacity:0.86;fill:#27AAAB;enable-background:new    ;}
	.st29{opacity:0.6;fill:#6E6F71;enable-background:new    ;}
	.st30{fill:none;stroke:#FFFFFF;stroke-width:4.800000e-02;stroke-miterlimit:10;}
	.st31{opacity:0.4;fill:#6E6F71;enable-background:new    ;}
	.st32{opacity:0.3;fill:#6E6F71;enable-background:new    ;}
	.st33{opacity:0.98;fill:#6E6F71;enable-background:new    ;}
	.st34{opacity:0.66;fill:#6E6F71;enable-background:new    ;}
	.st35{opacity:0.88;fill:#6E6F71;enable-background:new    ;}
	.st36{fill:#6E6F71;}
	.st37{opacity:0.67;fill:#6E6F71;enable-background:new    ;}
	.st38{opacity:0.33;fill:#6E6F71;enable-background:new    ;}
	.st39{opacity:0.5;fill:#6E6F71;enable-background:new    ;}
	.st40{opacity:0.55;fill:#6E6F71;enable-background:new    ;}
	.st41{opacity:0.86;fill:#6E6F71;enable-background:new    ;}
	.st42{fill:url(#SVGID_1_);}
	.st43{fill:#2A8686;}
	.st44{fill:#231F20;}
	.st45{fill:#5E2E83;}
</style>
<g>
	<g>
		<path class="st0" d="M37.5,25.3c0,0,0-0.1,0.1-0.3c0-0.2,0.1-0.4,0.2-0.7c0.1-0.6,0.2-1.5,0.3-2.7c0-1.1-0.1-2.4-0.3-3.8
			c-0.1-0.7-0.3-1.4-0.5-2.1c-0.1-0.3-0.2-0.7-0.4-1c-0.1-0.2-0.1-0.3-0.2-0.5l-0.2-0.5c-0.1-0.2-0.2-0.3-0.2-0.5
			c-0.1-0.2-0.2-0.3-0.3-0.5c-0.2-0.3-0.4-0.6-0.6-0.9c-0.4-0.6-0.8-1.2-1.3-1.7c-0.9-1-1.9-1.9-2.8-2.6c-0.1-0.1-0.2-0.2-0.3-0.2
			c-0.1-0.1-0.2-0.2-0.3-0.2S30.2,7,30.1,6.9c-0.1-0.1-0.2-0.1-0.3-0.2c-0.2-0.1-0.4-0.2-0.5-0.3c-0.2-0.1-0.3-0.2-0.5-0.3
			c-0.1,0-0.1-0.1-0.2-0.1C28.6,6,28.5,6,28.5,6c-0.1,0-0.2-0.1-0.3-0.1c-0.2-0.1-0.2-0.1-0.2-0.1l1.6-3.6c0,0,0.1,0,0.3,0.1
			c0.1,0,0.2,0.1,0.3,0.2c0.1,0,0.1,0.1,0.2,0.1s0.2,0.1,0.2,0.1C30.8,2.8,31,2.9,31.2,3c0.2,0.1,0.4,0.2,0.7,0.4
			c0.1,0.1,0.2,0.2,0.4,0.2c0.1,0.1,0.2,0.2,0.4,0.2C32.8,3.9,32.9,4,33,4.1c0.1,0.1,0.3,0.2,0.4,0.3c1.1,0.8,2.3,1.9,3.4,3.2
			c0.5,0.7,1.1,1.3,1.6,2.1c0.2,0.4,0.5,0.8,0.7,1.2c0.1,0.2,0.2,0.4,0.3,0.6c0.1,0.2,0.2,0.4,0.3,0.6l0.3,0.6
			c0.1,0.2,0.2,0.4,0.3,0.6c0.2,0.4,0.3,0.8,0.5,1.3c0.3,0.8,0.5,1.7,0.7,2.5c0.3,1.7,0.5,3.3,0.4,4.6c0,1.4-0.2,2.5-0.3,3.3
			c-0.1,0.4-0.1,0.7-0.2,0.9s-0.1,0.3-0.1,0.3L37.5,25.3z"/>
		<path class="st1" d="M6,27.5c0,0,0,0.1,0.1,0.3c0,0.1,0.1,0.2,0.2,0.4c0.1,0.1,0.1,0.3,0.2,0.5c0.4,0.7,1,1.8,1.9,2.9
			c0.2,0.3,0.5,0.5,0.7,0.8c0.1,0.1,0.3,0.3,0.4,0.4c0.1,0.1,0.1,0.1,0.2,0.2s0.1,0.1,0.2,0.2c0.1,0.1,0.3,0.3,0.5,0.4
			s0.3,0.3,0.5,0.4c0.3,0.3,0.7,0.5,1.1,0.8c0.7,0.5,1.5,1,2.4,1.3S16,36.8,17,37c1.8,0.5,3.7,0.6,5.5,0.5c0.9-0.1,1.7-0.2,2.5-0.4
			c0.8-0.2,1.5-0.4,2.2-0.7c1.3-0.5,2.3-1.1,3-1.6c0.1-0.1,0.2-0.1,0.2-0.2c0.1,0,0.1-0.1,0.2-0.2c0.1-0.1,0.2-0.2,0.3-0.2
			c0.1-0.1,0.2-0.1,0.2-0.2c0,0,0.1,0,0.1,0l1.6,2.1c0,0-0.4,0.3-1.2,0.9s-2,1.2-3.5,1.8c-0.8,0.3-1.6,0.6-2.5,0.8s-1.9,0.4-2.9,0.5
			c-2,0.2-4.2,0-6.3-0.6c-1.1-0.3-2.1-0.7-3.1-1.1c-1-0.4-1.9-1-2.8-1.5c-0.4-0.3-0.8-0.6-1.2-0.9c-0.2-0.2-0.4-0.3-0.6-0.5
			c-0.2-0.2-0.4-0.3-0.5-0.5C8.1,35,8,34.9,7.9,34.9c-0.1-0.1-0.2-0.2-0.2-0.2c-0.2-0.2-0.3-0.3-0.5-0.5c-0.3-0.3-0.6-0.7-0.8-1
			c-1-1.3-1.7-2.5-2.2-3.3c-0.1-0.2-0.2-0.4-0.3-0.6c-0.1-0.2-0.1-0.3-0.2-0.4c-0.1-0.2-0.1-0.4-0.1-0.4L6,27.5z"/>
		<path class="st2" d="M6,27.5c0,0,0,0.1,0.1,0.3c0,0.1,0.1,0.2,0.2,0.4c0.1,0.1,0.1,0.3,0.2,0.5c0.4,0.7,1,1.8,1.9,2.9
			c0.2,0.3,0.5,0.5,0.7,0.8c0.1,0.1,0.3,0.3,0.4,0.4c0.1,0.1,0.1,0.1,0.2,0.2s0.1,0.1,0.2,0.2c0.1,0.1,0.3,0.3,0.5,0.4
			s0.3,0.3,0.5,0.4c0.3,0.3,0.7,0.5,1.1,0.8c0.7,0.5,1.5,1,2.4,1.3S16,36.8,17,37c1.8,0.5,3.7,0.6,5.5,0.5c0.9-0.1,1.7-0.2,2.5-0.4
			c0.8-0.2,1.5-0.4,2.2-0.7c1.3-0.5,2.3-1.1,3-1.6c0.1-0.1,0.2-0.1,0.2-0.2c0.1,0,0.1-0.1,0.2-0.2c0.1-0.1,0.2-0.2,0.3-0.2
			c0.1-0.1,0.2-0.1,0.2-0.2c0,0,0.1,0,0.1,0l1.6,2.1c0,0-0.4,0.3-1.2,0.9s-2,1.2-3.5,1.8c-0.8,0.3-1.6,0.6-2.5,0.8s-1.9,0.4-2.9,0.5
			c-2,0.2-4.2,0-6.3-0.6c-1.1-0.3-2.1-0.7-3.1-1.1c-1-0.4-1.9-1-2.8-1.5c-0.4-0.3-0.8-0.6-1.2-0.9c-0.2-0.2-0.4-0.3-0.6-0.5
			c-0.2-0.2-0.4-0.3-0.5-0.5C8.1,35,8,34.9,7.9,34.9c-0.1-0.1-0.2-0.2-0.2-0.2c-0.2-0.2-0.3-0.3-0.5-0.5c-0.3-0.3-0.6-0.7-0.8-1
			c-1-1.3-1.7-2.5-2.2-3.3c-0.1-0.2-0.2-0.4-0.3-0.6c-0.1-0.2-0.1-0.3-0.2-0.4c-0.1-0.2-0.1-0.4-0.1-0.4L6,27.5z"/>
		<path class="st3" d="M33.7,18.4c0-0.1,0-0.1,0-0.2c0-0.1,0-0.1,0-0.2l-0.1-0.2c0-0.1,0-0.1,0-0.2l0-0.1c-0.3-1.1-0.8-2.1-1.4-3.1
			c-0.6-1-1.6-2.3-3.2-3.5c-0.7-0.5-1.5-1-2.3-1.4c-0.8-0.4-1.7-0.7-2.6-0.9c-0.9-0.2-1.8-0.3-2.7-0.4c-0.1,0-0.2,0-0.3,0
			c-0.8,0-1.6,0.1-2.4,0.2c-2,0.4-3.5,1.1-4.4,1.7c-0.5,0.3-1.1,0.7-1.5,1.1c-0.1,0-0.1,0.1-0.2,0.2c0,0-0.1,0.1-0.1,0.1
			s-0.1,0.1-0.1,0.1c-0.1,0.1-0.1,0.1-0.2,0.2L11.8,12c-0.1,0.1-0.2,0.2-0.2,0.2c-0.1,0.1-0.2,0.2-0.3,0.3l-0.1,0.1
			c-0.1,0.1-0.2,0.2-0.3,0.3s-0.1,0.2-0.2,0.2l-3.1-2.4c0-0.1,0.1-0.2,0.2-0.3l0.3-0.4C8.3,10,8.4,9.9,8.5,9.8l0.2-0.2
			C8.8,9.5,8.9,9.4,9,9.3l0.3-0.3c0.1-0.1,0.1-0.2,0.2-0.2c0,0,0.1-0.1,0.1-0.1c0,0,0.1-0.1,0.1-0.1c0.1-0.1,0.2-0.2,0.3-0.2
			c0.6-0.5,1.3-1,2-1.5c1.2-0.8,3.2-1.7,5.7-2.2c1-0.2,2.1-0.3,3.1-0.3c0.1,0,0.2,0,0.4,0c1.2,0,2.4,0.2,3.6,0.5
			c2.3,0.5,4.5,1.6,6.4,3c0.9,0.7,1.7,1.4,2.4,2.2c0.6,0.7,1.2,1.5,1.8,2.4c0.8,1.2,1.4,2.6,1.8,4l0,0.1c0,0.1,0,0.2,0.1,0.2
			c0,0.1,0.1,0.5,0.1,0.5c0,0.1,0.1,0.2,0.1,0.3l0.1,0.3l-3.8,0.8L33.7,18.4z"/>
		<path class="st4" d="M10.3,34.5C10.3,34.5,10.4,34.5,10.3,34.5c0.1,0.1,0.1,0.1,0.2,0.2c0.1,0.1,0.3,0.2,0.5,0.4
			c0.1,0.1,0.2,0.2,0.4,0.3s0.3,0.2,0.5,0.3c0.2,0.1,0.3,0.2,0.5,0.3c0.2,0.1,0.4,0.2,0.6,0.3c0.9,0.5,1.9,0.9,3.1,1.3
			c1.2,0.4,2.5,0.6,3.8,0.7c1.3,0.1,2.6,0,3.8-0.2c1.2-0.2,2.3-0.5,3.2-0.9c0.9-0.3,1.7-0.7,2.2-1c0.1-0.1,0.2-0.1,0.3-0.2
			c0.1-0.1,0.2-0.1,0.2-0.2c0.1-0.1,0.2-0.1,0.2-0.1l0.9,1.5c0,0-0.1,0.1-0.2,0.1c-0.1,0-0.2,0.1-0.3,0.2c-0.1,0.1-0.2,0.1-0.4,0.2
			c-0.5,0.3-1.4,0.7-2.4,1.1c-1,0.4-2.2,0.7-3.6,1c-1.3,0.2-2.8,0.3-4.2,0.2c-1.4-0.1-2.9-0.4-4.2-0.8s-2.5-0.9-3.4-1.4
			c-0.2-0.1-0.5-0.2-0.7-0.4s-0.4-0.2-0.6-0.4c-0.2-0.1-0.4-0.2-0.5-0.3c-0.2-0.1-0.3-0.2-0.4-0.3c-0.2-0.2-0.5-0.3-0.6-0.4
			c-0.1-0.1-0.1-0.1-0.1-0.1c0,0,0,0,0,0L10.3,34.5z"/>
		<path class="st5" d="M7,17.8c0,0,0,0.1,0,0.2c0,0.1-0.1,0.3-0.1,0.6c-0.1,0.5-0.2,1.2-0.2,2c0,0.8,0,1.8,0.2,2.9
			c0,0.3,0.1,0.5,0.1,0.8c0.1,0.3,0.1,0.5,0.2,0.8c0.2,0.5,0.3,1.1,0.6,1.6c0.4,1,1,2,1.6,2.9c0.6,0.9,1.3,1.6,1.9,2.2
			c0.3,0.3,0.6,0.5,0.9,0.8c0.1,0.1,0.3,0.2,0.4,0.3c0.1,0,0.1,0.1,0.2,0.1c0.1,0,0.1,0.1,0.2,0.1c0.2,0.1,0.4,0.2,0.5,0.3
			c0.1,0.1,0.2,0.1,0.2,0.1L10.8,38c0,0-0.1-0.1-0.2-0.1c-0.1-0.1-0.4-0.2-0.6-0.4c-0.1-0.1-0.1-0.1-0.2-0.2
			c-0.1-0.1-0.1-0.1-0.2-0.2c-0.2-0.1-0.3-0.3-0.5-0.4c-0.4-0.3-0.8-0.6-1.2-1c-0.9-0.8-1.8-1.8-2.6-3c-0.9-1.2-1.6-2.5-2.2-4
			c-0.3-0.7-0.5-1.5-0.8-2.2c-0.1-0.4-0.2-0.7-0.3-1.1s-0.2-0.7-0.2-1.1c-0.2-1.4-0.3-2.8-0.2-4c0-1.2,0.2-2.1,0.3-2.8
			c0.1-0.3,0.1-0.6,0.2-0.8c0-0.2,0.1-0.3,0.1-0.3L7,17.8z"/>
		<path class="st6" d="M12.4,8.1c0,0-0.1,0.1-0.3,0.2c-0.1,0.1-0.2,0.1-0.3,0.2c-0.1,0.1-0.3,0.2-0.4,0.3C10.7,9.3,9.9,10,9,11.1
			c-0.9,1.1-1.8,2.4-2.4,4c-0.7,1.6-1.1,3.4-1.2,5.3c0,0.9,0,1.8,0.1,2.8c0.1,0.9,0.3,1.8,0.6,2.6c0.5,1.7,1.3,3.1,2,4.3
			c0.8,1.2,1.6,2,2.2,2.6c0.3,0.3,0.5,0.5,0.7,0.6s0.2,0.2,0.2,0.2l-0.8,1c0,0-0.1-0.1-0.3-0.2c-0.2-0.2-0.4-0.4-0.8-0.7
			C8.7,33,7.8,32,7,30.8c-0.8-1.2-1.7-2.8-2.2-4.6c-0.3-0.9-0.5-1.8-0.6-2.8c-0.1-1-0.2-2-0.1-3c0.1-2,0.6-4,1.3-5.7
			C6,12.9,7,11.4,8,10.2c1-1.2,1.9-2,2.6-2.5c0.2-0.1,0.3-0.2,0.5-0.3c0.1-0.1,0.2-0.2,0.3-0.2c0.2-0.1,0.3-0.2,0.3-0.2L12.4,8.1z"
			/>
		<path class="st7" d="M31.9,11.9c0,0-0.1-0.1-0.2-0.2c-0.1-0.1-0.2-0.2-0.2-0.3c-0.1-0.1-0.2-0.2-0.4-0.4c-0.3-0.3-0.6-0.6-1-0.9
			c-0.1-0.1-0.2-0.2-0.3-0.3s-0.2-0.2-0.3-0.3S29.1,9.4,29,9.3S28.7,9.1,28.6,9c-0.1-0.1-0.3-0.2-0.4-0.3c-0.2-0.1-0.3-0.2-0.5-0.2
			c-0.1,0-0.2-0.1-0.2-0.1c-0.1,0-0.2-0.1-0.2-0.1C27,8.2,26.9,8.1,26.7,8c-0.7-0.3-1.5-0.6-2.2-0.8c-0.8-0.2-1.6-0.3-2.5-0.4
			s-1.7,0-2.6,0.1c-1.7,0.2-3.4,0.7-4.9,1.5c-0.7,0.4-1.4,0.8-2,1.2c-0.6,0.5-1.1,0.9-1.6,1.4c-0.9,0.9-1.6,1.8-2,2.5
			c-0.2,0.3-0.4,0.6-0.5,0.8c-0.1,0.2-0.1,0.3-0.1,0.3l-1.7-0.9c0,0,0.1-0.1,0.2-0.3c0.1-0.2,0.3-0.5,0.5-0.9
			c0.5-0.7,1.2-1.8,2.2-2.8c0.5-0.5,1.1-1,1.8-1.6c0.7-0.5,1.4-1,2.3-1.4c1.7-0.8,3.6-1.4,5.5-1.7c1-0.1,2-0.1,3-0.1
			s1.9,0.2,2.8,0.5s1.8,0.5,2.5,0.9c0.2,0.1,0.4,0.2,0.6,0.3c0.1,0,0.2,0.1,0.3,0.1c0.1,0,0.2,0.1,0.3,0.1c0.2,0.1,0.3,0.2,0.5,0.3
			c0.2,0.1,0.3,0.2,0.5,0.3c0.2,0.1,0.3,0.2,0.5,0.3c0.2,0.1,0.3,0.2,0.4,0.3c0.1,0.1,0.3,0.2,0.4,0.3s0.2,0.2,0.4,0.3
			c0.5,0.4,0.9,0.7,1.2,1c0.2,0.2,0.3,0.3,0.4,0.4s0.2,0.2,0.3,0.3c0.2,0.2,0.2,0.3,0.2,0.3L31.9,11.9z"/>
		<g class="st8">
			<path class="st9" d="M36.2,25c0,0,0,0,0-0.1s0-0.2,0.1-0.3c0-0.3,0.1-0.7,0.2-1.2c0.1-0.5,0.1-1.2,0.1-1.9c0-0.7,0-1.6-0.2-2.5
				c-0.3-1.8-0.9-3.8-2-5.8c-0.6-1-1.3-1.9-2.1-2.8c-0.8-0.9-1.7-1.6-2.7-2.3c-1-0.7-2.1-1.2-3.2-1.6c-1.1-0.4-2.2-0.7-3.3-0.9
				C20.9,5.3,18.8,5.6,17,6c-0.9,0.2-1.6,0.5-2.3,0.8c-0.7,0.3-1.2,0.6-1.7,0.9c-0.5,0.3-0.8,0.5-1,0.7c-0.2,0.2-0.3,0.2-0.3,0.2
				s0.1-0.1,0.3-0.2c0.2-0.2,0.6-0.4,1-0.7c0.5-0.3,1-0.6,1.7-0.9C15.4,6.5,16.2,6.2,17,6c1.7-0.5,3.8-0.7,6.1-0.3
				c1.1,0.2,2.2,0.4,3.3,0.9c1.1,0.4,2.2,1,3.2,1.6c1,0.7,1.9,1.5,2.7,2.3c0.8,0.9,1.5,1.8,2.1,2.8c1.2,1.9,1.8,4,2,5.8
				c0.1,0.9,0.2,1.7,0.2,2.5c0,0.7-0.1,1.4-0.1,1.9c-0.1,0.5-0.2,0.9-0.2,1.2c0,0.1-0.1,0.2-0.1,0.3C36.2,24.9,36.2,25,36.2,25"/>
			<path class="st10" d="M36.2,25c0,0,0,0,0-0.1s0-0.2,0.1-0.3c0-0.3,0.1-0.7,0.2-1.2c0.1-0.5,0.1-1.2,0.1-1.9c0-0.7,0-1.6-0.2-2.5
				c-0.3-1.8-0.9-3.8-2-5.8c-0.6-1-1.3-1.9-2.1-2.8c-0.8-0.9-1.7-1.6-2.7-2.3c-1-0.7-2.1-1.2-3.2-1.6c-1.1-0.4-2.2-0.7-3.3-0.9
				C20.9,5.3,18.8,5.6,17,6c-0.9,0.2-1.6,0.5-2.3,0.8c-0.7,0.3-1.2,0.6-1.7,0.9c-0.5,0.3-0.8,0.5-1,0.7c-0.2,0.2-0.3,0.2-0.3,0.2
				s0.1-0.1,0.3-0.2c0.2-0.2,0.6-0.4,1-0.7c0.5-0.3,1-0.6,1.7-0.9C15.4,6.5,16.2,6.2,17,6c1.7-0.5,3.8-0.7,6.1-0.3
				c1.1,0.2,2.2,0.4,3.3,0.9c1.1,0.4,2.2,1,3.2,1.6c1,0.7,1.9,1.5,2.7,2.3c0.8,0.9,1.5,1.8,2.1,2.8c1.2,1.9,1.8,4,2,5.8
				c0.1,0.9,0.2,1.7,0.2,2.5c0,0.7-0.1,1.4-0.1,1.9c-0.1,0.5-0.2,0.9-0.2,1.2c0,0.1-0.1,0.2-0.1,0.3C36.2,24.9,36.2,25,36.2,25z"/>
		</g>
		<path class="st11" d="M36.6,28.1c0,0,0.1-0.2,0.2-0.5c0-0.1,0.1-0.2,0.1-0.3s0.1-0.2,0.1-0.3c0.1-0.2,0.2-0.5,0.3-0.8
			c0-0.2,0.1-0.3,0.1-0.5c0-0.2,0.1-0.3,0.1-0.5c0.1-0.4,0.2-0.8,0.2-1.2c0.1-0.9,0.2-1.8,0.2-2.9c0-1.1-0.1-2.2-0.4-3.4
			c-0.1-0.3-0.1-0.6-0.2-0.9s-0.2-0.6-0.3-0.9c-0.1-0.3-0.2-0.6-0.3-0.9c-0.1-0.3-0.2-0.6-0.4-0.9c-0.1-0.2-0.1-0.3-0.2-0.5
			c-0.1-0.2-0.2-0.3-0.2-0.5c-0.2-0.3-0.3-0.6-0.5-0.9c-0.1-0.2-0.2-0.3-0.3-0.4c-0.1-0.1-0.2-0.3-0.3-0.4c-0.2-0.3-0.4-0.6-0.6-0.8
			C33.8,10,33.3,9.5,32.8,9c-0.5-0.5-1-1-1.6-1.4c-0.6-0.4-1.2-0.8-1.8-1.2c-0.6-0.3-1.2-0.7-1.9-0.9c-1.3-0.5-2.6-0.9-4-1.1
			s-2.6-0.2-3.8-0.2s-2.4,0.3-3.4,0.6c-1,0.3-1.9,0.7-2.7,1c-0.8,0.4-1.4,0.8-2,1.1c-0.1,0.1-0.2,0.2-0.4,0.2
			c-0.1,0.1-0.2,0.2-0.3,0.2c-0.2,0.1-0.4,0.3-0.5,0.4C10.1,8,10,8.2,10,8.2L8.9,6.8c0,0,0.1-0.1,0.4-0.4c0.1-0.1,0.3-0.2,0.5-0.4
			C10,6,10.1,5.9,10.2,5.8c0.1-0.1,0.3-0.2,0.4-0.3c0.6-0.4,1.3-0.8,2.1-1.2s1.9-0.8,3-1.2c1.1-0.3,2.4-0.6,3.7-0.7
			c1.3-0.1,2.8-0.1,4.2,0.2c1.5,0.2,2.9,0.6,4.4,1.2c0.7,0.3,1.4,0.7,2.1,1c0.7,0.4,1.3,0.8,2,1.3c0.6,0.5,1.2,1,1.8,1.5
			c0.5,0.6,1.1,1.1,1.6,1.7c0.2,0.3,0.5,0.6,0.7,0.9c0.1,0.2,0.2,0.3,0.3,0.5s0.2,0.3,0.3,0.5c0.2,0.3,0.4,0.7,0.6,1
			c0.1,0.2,0.2,0.3,0.3,0.5c0.1,0.2,0.2,0.3,0.2,0.5c0.2,0.3,0.3,0.7,0.4,1s0.2,0.7,0.4,1c0.1,0.3,0.2,0.7,0.3,1
			c0.1,0.3,0.2,0.7,0.2,1c0.3,1.3,0.4,2.6,0.4,3.8s-0.1,2.3-0.2,3.2c-0.1,0.5-0.2,0.9-0.3,1.3c0,0.2-0.1,0.4-0.2,0.6
			c0,0.2-0.1,0.4-0.2,0.5c-0.1,0.3-0.2,0.6-0.3,0.9c0,0.1-0.1,0.2-0.1,0.3c0,0.1-0.1,0.2-0.1,0.3c-0.1,0.3-0.2,0.5-0.2,0.5
			L36.6,28.1z"/>
		<path class="st9" d="M32.8,10.1c0,0-0.1-0.1-0.2-0.2S32.3,9.5,32,9.3c-0.5-0.5-1.3-1.2-2.4-1.8c-0.3-0.2-0.5-0.3-0.8-0.5
			c-0.2-0.1-0.3-0.2-0.5-0.2c-0.2-0.1-0.3-0.2-0.5-0.2c-0.1,0-0.2-0.1-0.2-0.1c-0.1,0-0.2-0.1-0.2-0.1C27.1,6.2,27,6.1,26.8,6
			c-0.2-0.1-0.4-0.1-0.5-0.2c-0.1,0-0.2-0.1-0.3-0.1c-0.1,0-0.2-0.1-0.3-0.1c-0.8-0.2-1.5-0.4-2.3-0.5c-0.8-0.1-1.7-0.2-2.5-0.2
			c-0.8,0-1.7,0.1-2.5,0.2c-0.8,0.1-1.6,0.3-2.3,0.6c-0.7,0.2-1.5,0.5-2.1,0.8c-0.1,0-0.2,0.1-0.2,0.1c-0.1,0-0.2,0.1-0.2,0.1
			C13.3,6.8,13.2,6.9,13,7c-0.2,0.1-0.3,0.2-0.4,0.2s-0.3,0.2-0.4,0.2c-1,0.7-1.9,1.4-2.4,1.9C9.5,9.6,9.3,9.8,9.2,10
			C9.1,10.1,9,10.2,9,10.2s0.1-0.1,0.2-0.2c0.1-0.2,0.3-0.3,0.6-0.6c0.5-0.5,1.3-1.2,2.4-1.9c0.1-0.1,0.3-0.2,0.4-0.2S12.9,7.1,13,7
			s0.3-0.2,0.5-0.2c0.1,0,0.2-0.1,0.2-0.1c0.1,0,0.2-0.1,0.2-0.1c0.6-0.3,1.3-0.6,2.1-0.8c0.7-0.2,1.5-0.4,2.3-0.6
			C19.2,5,20,4.9,20.9,4.9c0.8,0,1.7,0,2.5,0.2s1.6,0.3,2.3,0.5c0.1,0,0.2,0.1,0.3,0.1c0.1,0,0.2,0.1,0.3,0.1
			C26.4,5.9,26.6,6,26.8,6c0.2,0.1,0.3,0.2,0.5,0.2c0.1,0,0.2,0.1,0.2,0.1s0.2,0.1,0.2,0.1c0.2,0.1,0.3,0.2,0.5,0.2
			c0.2,0.1,0.3,0.2,0.5,0.2c0.3,0.2,0.6,0.3,0.8,0.5c1.1,0.7,1.9,1.3,2.4,1.8c0.3,0.2,0.5,0.5,0.6,0.6C32.7,10,32.8,10.1,32.8,10.1"
			/>
		<path class="st12" d="M24.4,6.6c0,0-0.1,0-0.3-0.1c-0.2,0-0.4-0.1-0.7-0.1c-0.6-0.1-1.5-0.2-2.6-0.2c-0.3,0-0.6,0-0.8,0
			c-0.2,0-0.3,0-0.5,0c-0.2,0-0.3,0-0.5,0c-0.3,0-0.6,0.1-1,0.2c-0.2,0-0.3,0.1-0.5,0.1c-0.2,0-0.3,0.1-0.5,0.1
			c-0.2,0-0.3,0.1-0.5,0.2c-0.2,0-0.3,0.1-0.5,0.2c-0.2,0.1-0.3,0.1-0.5,0.2c-0.2,0.1-0.3,0.1-0.5,0.2c-0.7,0.3-1.3,0.6-1.9,1
			s-1.2,0.8-1.8,1.3c-0.1,0.1-0.3,0.2-0.4,0.3c-0.1,0.1-0.3,0.2-0.4,0.4c-0.1,0.1-0.2,0.2-0.4,0.4c-0.1,0.1-0.2,0.2-0.4,0.4
			c-0.1,0.1-0.2,0.2-0.3,0.4c-0.1,0.1-0.2,0.3-0.3,0.4c-0.2,0.3-0.4,0.5-0.6,0.8c-0.1,0.1-0.2,0.3-0.3,0.4c-0.1,0.1-0.2,0.3-0.2,0.4
			C8,13.8,7.9,14,7.7,14.3c-0.5,1-0.8,1.8-1,2.5c-0.1,0.3-0.2,0.5-0.2,0.7c0,0.2-0.1,0.2-0.1,0.2l-4.5-1.1c0,0,0-0.1,0.1-0.3
			c0-0.2,0.1-0.5,0.3-0.9c0.3-0.8,0.7-1.9,1.3-3.2c0.2-0.3,0.3-0.7,0.5-1c0.1-0.2,0.2-0.3,0.3-0.5c0.1-0.2,0.2-0.3,0.3-0.5
			C5,9.7,5.3,9.4,5.5,9c0.1-0.2,0.3-0.3,0.4-0.5C6.1,8.4,6.2,8.2,6.4,8c0.1-0.2,0.3-0.3,0.5-0.5C7,7.4,7.2,7.2,7.3,7
			c0.2-0.2,0.3-0.3,0.5-0.5C8,6.4,8.2,6.2,8.4,6.1c0.7-0.6,1.5-1.2,2.3-1.7c0.8-0.5,1.7-0.9,2.5-1.3c0.2-0.1,0.4-0.2,0.7-0.3
			c0.2-0.1,0.4-0.2,0.7-0.2c0.2-0.1,0.4-0.1,0.7-0.2s0.4-0.1,0.7-0.2C16,2.1,16.2,2.1,16.5,2c0.2,0,0.4-0.1,0.6-0.1
			c0.4-0.1,0.8-0.1,1.2-0.2c0.2,0,0.4,0,0.6-0.1c0.2,0,0.4,0,0.6,0c0.4,0,0.8,0,1.1,0c1.4,0,2.6,0.1,3.5,0.3c0.4,0.1,0.7,0.1,1,0.2
			c0.2,0,0.3,0.1,0.3,0.1L24.4,6.6z"/>
		<path class="st13" d="M20.9,6.8c0,0-0.1,0-0.2,0c-0.2,0-0.4,0-0.6,0c-0.5,0-1.3,0.1-2.3,0.3c-0.9,0.2-2,0.6-3.1,1.1
			c-0.1,0.1-0.3,0.1-0.4,0.2S14,8.6,13.9,8.7c-0.3,0.2-0.5,0.3-0.8,0.5c-0.5,0.3-1,0.7-1.5,1.1c-0.2,0.2-0.5,0.4-0.7,0.7
			c-0.2,0.2-0.4,0.5-0.6,0.7c-0.1,0.1-0.2,0.2-0.3,0.4c-0.1,0.1-0.2,0.2-0.3,0.4c-0.2,0.2-0.4,0.5-0.5,0.7c-0.7,1-1.2,2-1.5,2.9
			c-0.4,0.9-0.5,1.7-0.7,2.2c0,0.3-0.1,0.5-0.1,0.6c0,0.2,0,0.2,0,0.2l-1.3-0.2c0,0,0-0.1,0-0.2s0.1-0.4,0.1-0.7
			c0.1-0.6,0.3-1.4,0.7-2.4s0.9-2.1,1.6-3.2c0.2-0.3,0.4-0.5,0.6-0.8c0.1-0.1,0.2-0.3,0.3-0.4s0.2-0.3,0.3-0.4
			c0.2-0.2,0.5-0.5,0.7-0.8c0.2-0.2,0.5-0.5,0.8-0.7c0.5-0.5,1.1-0.9,1.6-1.2c0.3-0.2,0.6-0.4,0.9-0.5c0.2-0.1,0.3-0.2,0.4-0.2
			c0.2-0.1,0.3-0.2,0.4-0.2c1.2-0.6,2.3-1,3.3-1.2s1.9-0.3,2.5-0.4c0.3,0,0.5,0,0.7,0s0.2,0,0.2,0L20.9,6.8z"/>
		<path class="st14" d="M20.9,6.8c0,0-0.1,0-0.2,0c-0.2,0-0.4,0-0.6,0c-0.5,0-1.3,0.1-2.3,0.3c-0.9,0.2-2,0.6-3.1,1.1
			c-0.1,0.1-0.3,0.1-0.4,0.2S14,8.6,13.9,8.7c-0.3,0.2-0.5,0.3-0.8,0.5c-0.5,0.3-1,0.7-1.5,1.1c-0.2,0.2-0.5,0.4-0.7,0.7
			c-0.2,0.2-0.4,0.5-0.6,0.7c-0.1,0.1-0.2,0.2-0.3,0.4c-0.1,0.1-0.2,0.2-0.3,0.4c-0.2,0.2-0.4,0.5-0.5,0.7c-0.7,1-1.2,2-1.5,2.9
			c-0.4,0.9-0.5,1.7-0.7,2.2c0,0.3-0.1,0.5-0.1,0.6c0,0.2,0,0.2,0,0.2l-1.3-0.2c0,0,0-0.1,0-0.2s0.1-0.4,0.1-0.7
			c0.1-0.6,0.3-1.4,0.7-2.4s0.9-2.1,1.6-3.2c0.2-0.3,0.4-0.5,0.6-0.8c0.1-0.1,0.2-0.3,0.3-0.4s0.2-0.3,0.3-0.4
			c0.2-0.2,0.5-0.5,0.7-0.8c0.2-0.2,0.5-0.5,0.8-0.7c0.5-0.5,1.1-0.9,1.6-1.2c0.3-0.2,0.6-0.4,0.9-0.5c0.2-0.1,0.3-0.2,0.4-0.2
			c0.2-0.1,0.3-0.2,0.4-0.2c1.2-0.6,2.3-1,3.3-1.2s1.9-0.3,2.5-0.4c0.3,0,0.5,0,0.7,0s0.2,0,0.2,0L20.9,6.8z"/>
		<path class="st15" d="M5.1,17.9c0,0,0,0.2-0.1,0.5c0,0.2-0.1,0.4-0.1,0.6c0,0.2-0.1,0.5-0.1,0.8c-0.1,1.2-0.1,2.8,0.2,4.3
			c0.1,0.8,0.4,1.5,0.6,2.2c0.1,0.2,0.1,0.3,0.2,0.5C5.9,27.2,6,27.3,6,27.5c0.1,0.3,0.3,0.6,0.4,0.9c0.3,0.5,0.5,1,0.7,1.3
			c0.2,0.3,0.3,0.5,0.3,0.5L6.1,31c0,0-0.1-0.2-0.3-0.5c-0.2-0.3-0.5-0.8-0.8-1.4c-0.1-0.3-0.3-0.6-0.4-1c-0.1-0.2-0.1-0.3-0.2-0.5
			c-0.1-0.2-0.1-0.4-0.2-0.6c-0.3-0.8-0.5-1.6-0.6-2.5c-0.3-1.7-0.4-3.5-0.3-4.8c0-0.3,0-0.6,0.1-0.9c0-0.3,0.1-0.5,0.1-0.7
			c0.1-0.4,0.1-0.6,0.1-0.6L5.1,17.9z"/>
		<path class="st9" d="M12.6,37c0,0,0.1,0.1,0.4,0.2c0.2,0.1,0.6,0.3,1,0.4c0.8,0.4,1.9,0.8,3.1,1s2.3,0.4,3.2,0.4
			c0.2,0,0.4,0,0.6,0s0.3,0,0.5,0c0.1,0,0.2,0,0.3,0s0.1,0,0.1,0s0,0-0.1,0c-0.1,0-0.2,0-0.3,0s-0.3,0-0.5,0s-0.4,0-0.6,0
			c-0.9,0-2.1-0.2-3.2-0.4c-1.2-0.3-2.3-0.7-3.1-1c-0.4-0.2-0.7-0.3-1-0.4C12.8,37.1,12.6,37,12.6,37"/>
		<path class="st2" d="M12.6,37c0,0,0.1,0.1,0.4,0.2c0.2,0.1,0.6,0.3,1,0.4c0.8,0.4,1.9,0.8,3.1,1s2.3,0.4,3.2,0.4
			c0.2,0,0.4,0,0.6,0s0.3,0,0.5,0c0.1,0,0.2,0,0.3,0s0.1,0,0.1,0s0,0-0.1,0c-0.1,0-0.2,0-0.3,0s-0.3,0-0.5,0s-0.4,0-0.6,0
			c-0.9,0-2.1-0.2-3.2-0.4c-1.2-0.3-2.3-0.7-3.1-1c-0.4-0.2-0.7-0.3-1-0.4C12.8,37.1,12.6,37,12.6,37z"/>
		<path class="st16" d="M23.3,12.7c0,0-0.1,0-0.2,0c-0.1,0-0.1,0-0.2,0s-0.2,0-0.3-0.1c-0.5-0.1-1.2-0.2-2-0.1c-0.2,0-0.4,0-0.6,0
			c-0.1,0-0.2,0-0.3,0c-0.1,0-0.1,0-0.2,0c-0.1,0-0.1,0-0.2,0c-0.1,0-0.2,0-0.3,0.1s-0.2,0.1-0.3,0.1c-0.2,0.1-0.5,0.1-0.7,0.2
			c-0.5,0.2-1,0.4-1.4,0.7c-0.5,0.3-0.9,0.6-1.3,0.9c-0.8,0.7-1.5,1.5-2.1,2.4c-0.3,0.4-0.5,0.9-0.7,1.3s-0.3,0.8-0.4,1.2
			c-0.2,0.8-0.3,1.5-0.3,2c0,0.1,0,0.1,0,0.2c0,0,0,0.1,0,0.2c0,0.1,0,0.2,0,0.2s0,0.1,0,0.2c0,0,0,0,0,0l-1.5,0.1c0,0,0-0.3,0-0.9
			s0.1-1.3,0.3-2.3c0.1-0.5,0.3-1,0.5-1.5c0.2-0.5,0.5-1,0.8-1.5c0.6-1,1.4-2,2.4-2.8c0.5-0.4,1-0.8,1.5-1.1s1.1-0.6,1.7-0.8
			c0.3-0.1,0.6-0.2,0.8-0.3c0.1,0,0.3-0.1,0.4-0.1c0.1,0,0.3-0.1,0.4-0.1c0.1,0,0.1,0,0.2,0c0.1,0,0.1,0,0.2,0c0.1,0,0.3,0,0.4,0
			c0.3,0,0.5,0,0.7-0.1c1,0,1.7,0,2.3,0.1c0.1,0,0.3,0,0.4,0.1c0.1,0,0.2,0,0.3,0c0.1,0,0.2,0,0.2,0L23.3,12.7z"/>
		<path class="st17" d="M23.3,12.7c0,0-0.1,0-0.2,0c-0.1,0-0.1,0-0.2,0s-0.2,0-0.3-0.1c-0.5-0.1-1.2-0.2-2-0.1c-0.2,0-0.4,0-0.6,0
			c-0.1,0-0.2,0-0.3,0c-0.1,0-0.1,0-0.2,0c-0.1,0-0.1,0-0.2,0c-0.1,0-0.2,0-0.3,0.1s-0.2,0.1-0.3,0.1c-0.2,0.1-0.5,0.1-0.7,0.2
			c-0.5,0.2-1,0.4-1.4,0.7c-0.5,0.3-0.9,0.6-1.3,0.9c-0.8,0.7-1.5,1.5-2.1,2.4c-0.3,0.4-0.5,0.9-0.7,1.3s-0.3,0.8-0.4,1.2
			c-0.2,0.8-0.3,1.5-0.3,2c0,0.1,0,0.1,0,0.2c0,0,0,0.1,0,0.2c0,0.1,0,0.2,0,0.2s0,0.1,0,0.2c0,0,0,0,0,0l-1.5,0.1c0,0,0-0.3,0-0.9
			s0.1-1.3,0.3-2.3c0.1-0.5,0.3-1,0.5-1.5c0.2-0.5,0.5-1,0.8-1.5c0.6-1,1.4-2,2.4-2.8c0.5-0.4,1-0.8,1.5-1.1s1.1-0.6,1.7-0.8
			c0.3-0.1,0.6-0.2,0.8-0.3c0.1,0,0.3-0.1,0.4-0.1c0.1,0,0.3-0.1,0.4-0.1c0.1,0,0.1,0,0.2,0c0.1,0,0.1,0,0.2,0c0.1,0,0.3,0,0.4,0
			c0.3,0,0.5,0,0.7-0.1c1,0,1.7,0,2.3,0.1c0.1,0,0.3,0,0.4,0.1c0.1,0,0.2,0,0.3,0c0.1,0,0.2,0,0.2,0L23.3,12.7z"/>
		<path class="st18" d="M17.9,28.6c0,0,0.1,0,0.2,0.1c0.1,0,0.1,0,0.2,0.1c0,0,0.1,0,0.1,0c0,0,0.1,0,0.2,0c0.4,0.2,1.1,0.3,1.9,0.4
			c0.8,0.1,1.8,0,2.7-0.3c0.5-0.1,1-0.3,1.4-0.6s0.9-0.5,1.3-0.9c0.4-0.3,0.8-0.7,1.1-1.2c0.3-0.4,0.6-0.9,0.8-1.3
			c0.4-0.9,0.6-1.8,0.7-2.6c0-0.4,0-0.8,0-1.1c0-0.1,0-0.2,0-0.2c0-0.1,0-0.2,0-0.2c0-0.1,0-0.1,0-0.2s0-0.1,0-0.2
			c0-0.1,0-0.2-0.1-0.3c0-0.1,0-0.2-0.1-0.2c0-0.1,0-0.2,0-0.2l2.3-0.7c0,0,0,0.1,0.1,0.2c0,0.1,0,0.2,0.1,0.3c0,0.1,0,0.2,0.1,0.4
			c0,0.1,0,0.2,0,0.2c0,0.1,0,0.2,0,0.3c0,0.1,0,0.2,0,0.3c0,0.1,0,0.2,0,0.3c0,0.4,0,0.9,0,1.4c-0.1,1-0.3,2.3-0.9,3.5
			c-0.3,0.6-0.6,1.2-1,1.7s-0.9,1.1-1.4,1.5c-1.1,0.9-2.3,1.6-3.6,2c-0.6,0.2-1.3,0.3-1.9,0.4c-0.6,0.1-1.2,0-1.7,0
			c-1.1-0.1-1.9-0.3-2.5-0.5c-0.1,0-0.1,0-0.2-0.1c-0.1,0-0.1,0-0.2-0.1c-0.1,0-0.2-0.1-0.3-0.1C17,30.8,17,30.8,17,30.8L17.9,28.6z
			"/>
		<path class="st17" d="M17.9,28.6c0,0,0.1,0,0.2,0.1c0.1,0,0.1,0,0.2,0.1c0,0,0.1,0,0.1,0c0,0,0.1,0,0.2,0c0.4,0.2,1.1,0.3,1.9,0.4
			c0.8,0.1,1.8,0,2.7-0.3c0.5-0.1,1-0.3,1.4-0.6s0.9-0.5,1.3-0.9c0.4-0.3,0.8-0.7,1.1-1.2c0.3-0.4,0.6-0.9,0.8-1.3
			c0.4-0.9,0.6-1.8,0.7-2.6c0-0.4,0-0.8,0-1.1c0-0.1,0-0.2,0-0.2c0-0.1,0-0.2,0-0.2c0-0.1,0-0.1,0-0.2s0-0.1,0-0.2
			c0-0.1,0-0.2-0.1-0.3c0-0.1,0-0.2-0.1-0.2c0-0.1,0-0.2,0-0.2l2.3-0.7c0,0,0,0.1,0.1,0.2c0,0.1,0,0.2,0.1,0.3c0,0.1,0,0.2,0.1,0.4
			c0,0.1,0,0.2,0,0.2c0,0.1,0,0.2,0,0.3c0,0.1,0,0.2,0,0.3c0,0.1,0,0.2,0,0.3c0,0.4,0,0.9,0,1.4c-0.1,1-0.3,2.3-0.9,3.5
			c-0.3,0.6-0.6,1.2-1,1.7s-0.9,1.1-1.4,1.5c-1.1,0.9-2.3,1.6-3.6,2c-0.6,0.2-1.3,0.3-1.9,0.4c-0.6,0.1-1.2,0-1.7,0
			c-1.1-0.1-1.9-0.3-2.5-0.5c-0.1,0-0.1,0-0.2-0.1c-0.1,0-0.1,0-0.2-0.1c-0.1,0-0.2-0.1-0.3-0.1C17,30.8,17,30.8,17,30.8L17.9,28.6z
			"/>
		<path class="st19" d="M18.5,12.4C18.5,12.4,18.5,12.4,18.5,12.4c0,0-0.1,0-0.1,0c-0.1,0-0.2,0.1-0.4,0.1c-0.1,0-0.2,0.1-0.3,0.1
			s-0.2,0.1-0.3,0.1c-0.1,0-0.2,0.1-0.3,0.1S16.9,13,16.8,13c-0.5,0.2-1.1,0.6-1.7,1s-1.1,1-1.6,1.5c-0.5,0.6-0.9,1.2-1.2,1.9
			c-0.3,0.6-0.5,1.3-0.7,1.8c-0.2,0.5-0.2,1-0.3,1.3c0,0.1,0,0.2,0,0.2c0,0.1,0,0.1,0,0.2c0,0.1,0,0.1,0,0.1l-1-0.1c0,0,0,0,0-0.2
			c0,0,0-0.1,0-0.2s0-0.2,0-0.2c0-0.4,0.1-0.9,0.3-1.5c0.2-0.6,0.4-1.3,0.8-2c0.3-0.7,0.8-1.4,1.3-2s1.2-1.2,1.8-1.7
			c0.6-0.5,1.3-0.8,1.8-1.1c0.1-0.1,0.3-0.1,0.4-0.2c0.1-0.1,0.3-0.1,0.4-0.2c0.1,0,0.2-0.1,0.3-0.1c0.1,0,0.2-0.1,0.3-0.1
			c0.2,0,0.3-0.1,0.4-0.1c0,0,0.1,0,0.1,0c0,0,0,0,0,0L18.5,12.4z"/>
		<path class="st20" d="M18.5,12.4C18.5,12.4,18.5,12.4,18.5,12.4c0,0-0.1,0-0.1,0c-0.1,0-0.2,0.1-0.4,0.1c-0.1,0-0.2,0.1-0.3,0.1
			s-0.2,0.1-0.3,0.1c-0.1,0-0.2,0.1-0.3,0.1S16.9,13,16.8,13c-0.5,0.2-1.1,0.6-1.7,1s-1.1,1-1.6,1.5c-0.5,0.6-0.9,1.2-1.2,1.9
			c-0.3,0.6-0.5,1.3-0.7,1.8c-0.2,0.5-0.2,1-0.3,1.3c0,0.1,0,0.2,0,0.2c0,0.1,0,0.1,0,0.2c0,0.1,0,0.1,0,0.1l-1-0.1c0,0,0,0,0-0.2
			c0,0,0-0.1,0-0.2s0-0.2,0-0.2c0-0.4,0.1-0.9,0.3-1.5c0.2-0.6,0.4-1.3,0.8-2c0.3-0.7,0.8-1.4,1.3-2s1.2-1.2,1.8-1.7
			c0.6-0.5,1.3-0.8,1.8-1.1c0.1-0.1,0.3-0.1,0.4-0.2c0.1-0.1,0.3-0.1,0.4-0.2c0.1,0,0.2-0.1,0.3-0.1c0.1,0,0.2-0.1,0.3-0.1
			c0.2,0,0.3-0.1,0.4-0.1c0,0,0.1,0,0.1,0c0,0,0,0,0,0L18.5,12.4z"/>
		<path class="st21" d="M27.4,16.5C27.4,16.5,27.4,16.5,27.4,16.5c-0.1-0.2-0.2-0.2-0.3-0.3c-0.2-0.2-0.5-0.5-0.9-0.8
			c-0.4-0.3-0.9-0.6-1.4-0.9c-0.1-0.1-0.3-0.1-0.4-0.2c-0.1-0.1-0.3-0.1-0.4-0.2c-0.3-0.1-0.6-0.2-0.9-0.3c-0.6-0.2-1.3-0.2-1.9-0.2
			c-0.6,0-1.2,0.1-1.7,0.2c-0.2,0-0.5,0.1-0.7,0.2c-0.1,0-0.2,0.1-0.3,0.1c0,0-0.1,0-0.1,0c0,0-0.1,0-0.1,0c-0.1,0-0.2,0.1-0.3,0.1
			c-0.1,0-0.1,0.1-0.1,0.1l-1.2-2.8c0,0,0,0,0.2-0.1c0.1,0,0.2-0.1,0.4-0.2c0,0,0.1,0,0.2,0c0,0,0.1,0,0.2,0c0.1,0,0.2-0.1,0.4-0.1
			c0.3-0.1,0.6-0.2,0.9-0.2c0.7-0.1,1.4-0.2,2.3-0.2c0.8,0,1.7,0.1,2.6,0.3c0.4,0.1,0.9,0.2,1.3,0.4c0.2,0.1,0.4,0.2,0.6,0.2
			s0.4,0.2,0.6,0.3c0.8,0.4,1.4,0.8,1.9,1.2c0.5,0.4,0.9,0.8,1.2,1.1c0.1,0.1,0.2,0.2,0.3,0.3c0.1,0.1,0.1,0.1,0.1,0.1L27.4,16.5z"
			/>
		<path class="st22" d="M30.2,22.3c0,0,0-0.1,0-0.2c0-0.1,0-0.1,0-0.2s0-0.2,0-0.3c0-0.5-0.1-1.1-0.3-1.9c-0.2-0.8-0.5-1.7-1.1-2.5
			c-0.5-0.9-1.2-1.7-2.1-2.3c-0.4-0.3-0.9-0.6-1.3-0.9c-0.5-0.2-0.9-0.5-1.4-0.6c-1-0.3-1.9-0.5-2.7-0.5c-0.8,0-1.5,0.1-1.9,0.1
			c-0.2,0-0.4,0.1-0.5,0.1s-0.2,0-0.2,0l-0.2-0.7c0,0,0.1,0,0.2,0c0.1,0,0.3-0.1,0.6-0.1c0.5-0.1,1.2-0.2,2.1-0.2
			c0.9,0,1.9,0.2,2.9,0.5c0.5,0.2,1,0.4,1.5,0.7c0.5,0.3,1,0.6,1.4,1c0.9,0.7,1.7,1.6,2.2,2.5c0.6,0.9,0.9,1.9,1.2,2.7
			c0.2,0.8,0.3,1.6,0.3,2.1c0,0.1,0,0.2,0,0.3s0,0.2,0,0.2c0,0.1,0,0.2,0,0.2L30.2,22.3z"/>
		<path class="st23" d="M21.8,30.2c0,0,0.1,0,0.2,0c0.1,0,0.1,0,0.2,0c0.1,0,0.2,0,0.3,0c0.2,0,0.5-0.1,0.8-0.2c0.1,0,0.2,0,0.2-0.1
			c0.1,0,0.2,0,0.2-0.1c0.1,0,0.2-0.1,0.2-0.1c0.1,0,0.2-0.1,0.3-0.1c0.1,0,0.2-0.1,0.3-0.1s0.2-0.1,0.3-0.1c0,0,0.1,0,0.1-0.1
			s0.1,0,0.1-0.1c0.1,0,0.2-0.1,0.3-0.2c0.4-0.2,0.8-0.5,1.1-0.8s0.7-0.6,1-1c0.3-0.4,0.6-0.8,0.9-1.2c0.5-0.9,0.8-1.8,1-2.8
			c0.1-0.5,0.1-0.9,0.1-1.4s0-0.8-0.1-1.2c-0.1-0.8-0.3-1.3-0.5-1.8c-0.1-0.2-0.2-0.4-0.2-0.5c0-0.1-0.1-0.2-0.1-0.2l1-0.5
			c0,0,0,0.1,0.1,0.2c0.1,0.1,0.1,0.3,0.2,0.5c0.2,0.5,0.4,1.2,0.5,2c0.1,0.4,0.1,0.9,0.1,1.4s0,1-0.1,1.5c-0.2,1.1-0.5,2.2-1.1,3.2
			c-0.3,0.5-0.6,1-1,1.4s-0.8,0.8-1.2,1.2s-0.8,0.6-1.3,0.9c-0.1,0.1-0.2,0.1-0.3,0.2c0,0-0.1,0.1-0.2,0.1c0,0-0.1,0-0.2,0.1
			c-0.1,0-0.2,0.1-0.3,0.2c-0.1,0-0.2,0.1-0.3,0.1c-0.1,0-0.2,0.1-0.3,0.1s-0.2,0.1-0.3,0.1s-0.2,0.1-0.3,0.1c-0.1,0-0.2,0-0.3,0.1
			c-0.3,0.1-0.6,0.2-0.9,0.2c-0.1,0-0.2,0-0.3,0c-0.1,0-0.2,0-0.2,0c-0.1,0-0.2,0-0.2,0L21.8,30.2z"/>
		<g>
			<path class="st24" d="M14.2,27.8C14.2,27.8,14.2,27.8,14.2,27.8c0.1,0.1,0.1,0.1,0.2,0.2c0.1,0.1,0.3,0.3,0.5,0.5
				c0.2,0.2,0.5,0.5,0.8,0.7s0.7,0.5,1.2,0.8c0.9,0.5,2.1,0.9,3.4,1c0.7,0.1,1.3,0.1,2,0c0.7-0.1,1.4-0.3,2-0.5
				c0.7-0.2,1.3-0.5,1.8-0.9s1.1-0.8,1.5-1.3c0.9-0.9,1.5-2,1.9-3c0.2-0.5,0.3-0.9,0.4-1.3s0.1-0.8,0.2-1.1c0-0.3,0-0.5,0-0.7
				c0-0.2,0-0.2,0-0.2s0,0.1,0,0.2c0,0.2,0,0.4,0,0.7c0,0.3-0.1,0.7-0.2,1.1c-0.1,0.4-0.2,0.9-0.4,1.3c-0.4,1-1,2-1.9,3
				c-0.5,0.5-1,0.9-1.5,1.3c-0.6,0.4-1.2,0.7-1.8,0.9c-0.7,0.2-1.3,0.4-2,0.5c-0.7,0.1-1.4,0.1-2,0c-1.3-0.1-2.5-0.5-3.4-1
				c-0.5-0.2-0.9-0.5-1.2-0.8c-0.3-0.3-0.6-0.5-0.8-0.7s-0.4-0.4-0.5-0.5C14.3,27.9,14.2,27.8,14.2,27.8
				C14.2,27.8,14.2,27.8,14.2,27.8"/>
			<path class="st17" d="M14.2,27.8C14.2,27.8,14.2,27.8,14.2,27.8c0.1,0.1,0.1,0.1,0.2,0.2c0.1,0.1,0.3,0.3,0.5,0.5
				c0.2,0.2,0.5,0.5,0.8,0.7s0.7,0.5,1.2,0.8c0.9,0.5,2.1,0.9,3.4,1c0.7,0.1,1.3,0.1,2,0c0.7-0.1,1.4-0.3,2-0.5
				c0.7-0.2,1.3-0.5,1.8-0.9s1.1-0.8,1.5-1.3c0.9-0.9,1.5-2,1.9-3c0.2-0.5,0.3-0.9,0.4-1.3s0.1-0.8,0.2-1.1c0-0.3,0-0.5,0-0.7
				c0-0.2,0-0.2,0-0.2s0,0.1,0,0.2c0,0.2,0,0.4,0,0.7c0,0.3-0.1,0.7-0.2,1.1c-0.1,0.4-0.2,0.9-0.4,1.3c-0.4,1-1,2-1.9,3
				c-0.5,0.5-1,0.9-1.5,1.3c-0.6,0.4-1.2,0.7-1.8,0.9c-0.7,0.2-1.3,0.4-2,0.5c-0.7,0.1-1.4,0.1-2,0c-1.3-0.1-2.5-0.5-3.4-1
				c-0.5-0.2-0.9-0.5-1.2-0.8c-0.3-0.3-0.6-0.5-0.8-0.7s-0.4-0.4-0.5-0.5C14.3,27.9,14.2,27.8,14.2,27.8
				C14.2,27.8,14.2,27.8,14.2,27.8z"/>
		</g>
		<path class="st24" d="M13.6,28.2c0,0,0,0,0.1,0.1c0.1,0.1,0.2,0.2,0.3,0.3c0.3,0.3,0.6,0.6,1.2,1c0.5,0.4,1.2,0.8,1.9,1.1
			c0.4,0.2,0.8,0.3,1.2,0.4c0.2,0.1,0.4,0.1,0.6,0.2c0.1,0,0.2,0,0.3,0.1l0.3,0.1c0.1,0,0.2,0,0.3,0c0.1,0,0.2,0,0.3,0
			c0.2,0,0.4,0,0.6,0c0.4,0,0.8,0,1.2,0c0.8-0.1,1.5-0.2,2.2-0.4c0.1,0,0.2,0,0.2-0.1s0.1,0,0.2-0.1s0.1,0,0.2-0.1
			c0.1,0,0.1,0,0.2-0.1c0.1,0,0.2-0.1,0.3-0.1c0.1,0,0.2-0.1,0.3-0.1c0,0,0.1,0,0.1-0.1c0,0,0.1,0,0.1-0.1c0.1,0,0.1-0.1,0.2-0.1
			c0.1,0,0.1-0.1,0.1-0.1l1.1,2c0,0-0.1,0-0.2,0.1c0,0-0.1,0.1-0.2,0.1c0,0-0.1,0-0.1,0.1c0,0-0.1,0-0.2,0.1c-0.1,0-0.2,0.1-0.3,0.2
			c-0.1,0.1-0.3,0.1-0.4,0.2c-0.1,0-0.2,0.1-0.2,0.1c-0.1,0-0.2,0.1-0.2,0.1c-0.1,0-0.2,0.1-0.3,0.1s-0.2,0.1-0.3,0.1
			c-0.8,0.2-1.7,0.4-2.7,0.5c-0.5,0-1,0-1.5,0c-0.3,0-0.5,0-0.8-0.1c-0.1,0-0.3,0-0.4,0s-0.3,0-0.4-0.1l-0.4-0.1
			c-0.1,0-0.3-0.1-0.4-0.1c-0.3-0.1-0.5-0.1-0.8-0.2c-0.5-0.2-1-0.3-1.4-0.5c-0.9-0.4-1.7-0.9-2.3-1.4s-1.1-0.9-1.4-1.3
			c-0.2-0.2-0.3-0.3-0.4-0.4s-0.1-0.1-0.1-0.1L13.6,28.2z"/>
		<path class="st17" d="M13.6,28.2c0,0,0,0,0.1,0.1c0.1,0.1,0.2,0.2,0.3,0.3c0.3,0.3,0.6,0.6,1.2,1c0.5,0.4,1.2,0.8,1.9,1.1
			c0.4,0.2,0.8,0.3,1.2,0.4c0.2,0.1,0.4,0.1,0.6,0.2c0.1,0,0.2,0,0.3,0.1l0.3,0.1c0.1,0,0.2,0,0.3,0c0.1,0,0.2,0,0.3,0
			c0.2,0,0.4,0,0.6,0c0.4,0,0.8,0,1.2,0c0.8-0.1,1.5-0.2,2.2-0.4c0.1,0,0.2,0,0.2-0.1s0.1,0,0.2-0.1s0.1,0,0.2-0.1
			c0.1,0,0.1,0,0.2-0.1c0.1,0,0.2-0.1,0.3-0.1c0.1,0,0.2-0.1,0.3-0.1c0,0,0.1,0,0.1-0.1c0,0,0.1,0,0.1-0.1c0.1,0,0.1-0.1,0.2-0.1
			c0.1,0,0.1-0.1,0.1-0.1l1.1,2c0,0-0.1,0-0.2,0.1c0,0-0.1,0.1-0.2,0.1c0,0-0.1,0-0.1,0.1c0,0-0.1,0-0.2,0.1c-0.1,0-0.2,0.1-0.3,0.2
			c-0.1,0.1-0.3,0.1-0.4,0.2c-0.1,0-0.2,0.1-0.2,0.1c-0.1,0-0.2,0.1-0.2,0.1c-0.1,0-0.2,0.1-0.3,0.1s-0.2,0.1-0.3,0.1
			c-0.8,0.2-1.7,0.4-2.7,0.5c-0.5,0-1,0-1.5,0c-0.3,0-0.5,0-0.8-0.1c-0.1,0-0.3,0-0.4,0s-0.3,0-0.4-0.1l-0.4-0.1
			c-0.1,0-0.3-0.1-0.4-0.1c-0.3-0.1-0.5-0.1-0.8-0.2c-0.5-0.2-1-0.3-1.4-0.5c-0.9-0.4-1.7-0.9-2.3-1.4s-1.1-0.9-1.4-1.3
			c-0.2-0.2-0.3-0.3-0.4-0.4s-0.1-0.1-0.1-0.1L13.6,28.2z"/>
		<path class="st25" d="M12.6,26.8c0,0,0,0.1,0.2,0.2c0,0,0,0.1,0.1,0.1c0,0,0.1,0.1,0.1,0.2c0.1,0.1,0.2,0.2,0.3,0.4
			c0,0.1,0.1,0.2,0.2,0.2c0.1,0.1,0.1,0.2,0.2,0.2c0.1,0.2,0.3,0.3,0.5,0.5c0.4,0.4,0.8,0.7,1.3,1.1c0.5,0.4,1.1,0.7,1.7,1
			c0.2,0.1,0.3,0.1,0.5,0.2s0.3,0.1,0.5,0.2c0.2,0,0.4,0.1,0.5,0.2s0.4,0.1,0.6,0.1c0.1,0,0.2,0,0.3,0c0.1,0,0.2,0,0.3,0
			c0.2,0,0.4,0,0.6,0.1c0.1,0,0.2,0,0.3,0c0.1,0,0.2,0,0.3,0c0.2,0,0.4,0,0.6,0c0.4,0,0.8-0.1,1.2-0.1c0.4-0.1,0.8-0.2,1.2-0.3
			c0.4-0.1,0.8-0.3,1.2-0.4c0.4-0.2,0.7-0.4,1.1-0.6c0.7-0.4,1.3-0.9,1.9-1.5c0.5-0.5,1-1.2,1.4-1.8c0.4-0.6,0.7-1.2,0.9-1.8
			s0.3-1.1,0.4-1.6c0.1-0.5,0.1-0.9,0.1-1.3c0-0.1,0-0.2,0-0.3c0-0.1,0-0.2,0-0.2c0-0.1,0-0.3,0-0.4c0-0.2,0-0.3,0-0.3l1-0.1
			c0,0,0,0.1,0,0.3c0,0.1,0,0.2,0,0.4c0,0.1,0,0.2,0,0.2s0,0.2,0,0.3c0,0.4-0.1,0.9-0.2,1.4c-0.1,0.5-0.2,1.2-0.5,1.8s-0.5,1.3-1,2
			s-0.9,1.3-1.5,1.9c-0.6,0.6-1.3,1.2-2.1,1.6c-0.4,0.2-0.8,0.4-1.2,0.6c-0.4,0.2-0.8,0.3-1.3,0.5c-0.4,0.1-0.9,0.2-1.3,0.3
			c-0.5,0.1-0.9,0.1-1.3,0.2c-0.2,0-0.5,0-0.7,0c-0.1,0-0.2,0-0.3,0c-0.1,0-0.2,0-0.3,0c-0.2,0-0.4,0-0.7-0.1c-0.1,0-0.2,0-0.3,0
			c-0.1,0-0.2,0-0.3-0.1c-0.2,0-0.4-0.1-0.6-0.1s-0.4-0.1-0.6-0.2c-0.2-0.1-0.4-0.1-0.6-0.2c-0.2-0.1-0.4-0.1-0.5-0.2
			c-0.7-0.3-1.4-0.7-1.9-1.1c-0.6-0.4-1-0.8-1.4-1.2c-0.2-0.2-0.4-0.4-0.5-0.6c-0.1-0.1-0.2-0.2-0.2-0.3s-0.1-0.2-0.2-0.2
			c-0.1-0.2-0.2-0.3-0.3-0.4c0-0.1-0.1-0.1-0.1-0.2s-0.1-0.1-0.1-0.2c-0.1-0.2-0.2-0.3-0.2-0.3L12.6,26.8z"/>
		<path class="st26" d="M26.8,28.4c0,0,0,0,0.1-0.1c0.1-0.1,0.2-0.2,0.3-0.3c0.3-0.3,0.6-0.7,1-1.2c0.1-0.1,0.2-0.3,0.3-0.4
			c0-0.1,0.1-0.2,0.1-0.2c0-0.1,0.1-0.2,0.1-0.2c0.1-0.2,0.2-0.3,0.2-0.5c0-0.1,0.1-0.2,0.1-0.3c0-0.1,0.1-0.2,0.1-0.3
			s0.1-0.2,0.1-0.3c0-0.1,0.1-0.2,0.1-0.3c0-0.1,0.1-0.2,0.1-0.3c0-0.1,0-0.2,0.1-0.3c0.1-0.4,0.2-0.8,0.2-1.2c0-0.4,0-0.8,0-1.3
			c0-0.1,0-0.2,0-0.3c0-0.1,0-0.2,0-0.3s0-0.2,0-0.3s0-0.2-0.1-0.3c0-0.1,0-0.2-0.1-0.3c0-0.1,0-0.2-0.1-0.3
			c-0.1-0.2-0.1-0.4-0.2-0.5c0-0.1-0.1-0.2-0.1-0.2s-0.1-0.2-0.1-0.2c-0.1-0.2-0.1-0.3-0.2-0.5c-0.3-0.6-0.6-1-0.8-1.3
			c-0.1-0.2-0.2-0.3-0.3-0.3c-0.1-0.1-0.1-0.1-0.1-0.1l2.1-1.7c0,0,0,0,0.1,0.2c0.1,0.1,0.2,0.2,0.3,0.4c0.3,0.4,0.7,1,1,1.7
			c0.1,0.2,0.2,0.4,0.3,0.6c0,0.1,0.1,0.2,0.1,0.3c0,0.1,0.1,0.2,0.1,0.3c0.1,0.2,0.2,0.5,0.2,0.7c0,0.1,0.1,0.2,0.1,0.4
			c0,0.1,0.1,0.2,0.1,0.4s0,0.3,0.1,0.4c0,0.1,0,0.3,0.1,0.4s0,0.3,0,0.4s0,0.3,0,0.4c0,0.5,0,1.1,0,1.7c0,0.5-0.1,1.1-0.2,1.6
			c0,0.1-0.1,0.3-0.1,0.4c0,0.1-0.1,0.3-0.1,0.4c0,0.1-0.1,0.2-0.1,0.4c0,0.1-0.1,0.2-0.1,0.4s-0.1,0.2-0.1,0.4
			c0,0.1-0.1,0.2-0.2,0.3c-0.1,0.2-0.2,0.4-0.3,0.7c-0.1,0.1-0.1,0.2-0.2,0.3c-0.1,0.1-0.1,0.2-0.2,0.3c-0.1,0.2-0.2,0.4-0.4,0.5
			c-0.5,0.7-1,1.2-1.3,1.5c-0.2,0.2-0.3,0.3-0.4,0.4c-0.1,0.1-0.2,0.1-0.2,0.1L26.8,28.4z"/>
		<path class="st27" d="M27.9,26.7c0,0,0,0,0.1-0.1c0-0.1,0.1-0.2,0.2-0.3c0.2-0.3,0.4-0.7,0.6-1.2c0.2-0.5,0.4-1.1,0.5-1.8
			c0-0.1,0-0.2,0-0.3c0-0.1,0-0.2,0-0.3c0-0.2,0-0.3,0-0.5c0-0.4,0-0.7,0-1.1c0-0.2,0-0.4-0.1-0.5c0-0.2-0.1-0.4-0.1-0.5
			c0-0.1,0-0.2-0.1-0.3s0-0.2-0.1-0.3c0-0.2-0.1-0.3-0.2-0.5c-0.2-0.7-0.5-1.2-0.8-1.7c-0.3-0.5-0.6-0.8-0.8-1.1
			c-0.1-0.1-0.2-0.2-0.3-0.3C27,16,26.9,16,26.9,16l0.5-0.5c0,0,0,0,0.1,0.1c0.1,0.1,0.2,0.2,0.3,0.3c0.2,0.3,0.6,0.7,0.9,1.2
			c0.3,0.5,0.7,1.1,0.9,1.8c0.1,0.2,0.1,0.4,0.2,0.5c0,0.1,0,0.2,0.1,0.3c0,0.1,0,0.2,0.1,0.3c0,0.2,0.1,0.4,0.1,0.6s0,0.4,0.1,0.6
			c0,0.4,0,0.8,0,1.2c0,0.2,0,0.4,0,0.6c0,0.1,0,0.2,0,0.3c0,0.1,0,0.2,0,0.3c-0.1,0.7-0.3,1.4-0.6,2c-0.2,0.5-0.5,1-0.7,1.3
			c-0.1,0.2-0.2,0.3-0.2,0.3c0,0.1-0.1,0.1-0.1,0.1L27.9,26.7z"/>
		<path class="st28" d="M28.1,15.6c0,0-0.1-0.1-0.2-0.2c-0.1-0.1-0.2-0.2-0.3-0.2s-0.2-0.2-0.3-0.3c-0.5-0.5-1.3-1-2.1-1.4
			c-0.4-0.2-0.8-0.4-1.3-0.5c-0.1,0-0.2-0.1-0.3-0.1c-0.1,0-0.2,0-0.3-0.1c-0.2,0-0.4-0.1-0.5-0.1c-0.3-0.1-0.6-0.1-0.8-0.1
			c-0.2,0-0.3,0-0.3,0l0-0.9c0,0,0.1,0,0.3,0c0.2,0,0.5,0,0.9,0.1c0.2,0,0.4,0.1,0.6,0.1c0.1,0,0.2,0,0.3,0.1c0.1,0,0.2,0.1,0.3,0.1
			c0.5,0.1,0.9,0.3,1.4,0.5c0.9,0.4,1.8,1,2.3,1.5c0.1,0.1,0.3,0.2,0.4,0.3c0.1,0.1,0.2,0.2,0.3,0.3c0.2,0.2,0.2,0.2,0.2,0.2
			L28.1,15.6z"/>
		<path class="st24" d="M16.5,12.6c0,0-0.1,0-0.2,0.1c-0.1,0.1-0.3,0.2-0.5,0.3c-0.4,0.3-1,0.6-1.5,1.1c-0.5,0.4-1,1-1.3,1.3
			c-0.1,0.1-0.2,0.2-0.2,0.3c-0.1,0.1-0.1,0.2-0.2,0.2c0,0.1-0.1,0.1-0.1,0.1c0,0,0,0,0,0s0,0,0,0s0.1-0.1,0.1-0.1
			c0-0.1,0.1-0.1,0.2-0.2c0.1-0.1,0.1-0.2,0.2-0.3c0.3-0.4,0.8-0.9,1.3-1.3c0.5-0.5,1.1-0.8,1.5-1.1c0.2-0.1,0.4-0.2,0.5-0.3
			C16.5,12.6,16.5,12.6,16.5,12.6"/>
		<path class="st17" d="M16.5,12.6c0,0-0.1,0-0.2,0.1c-0.1,0.1-0.3,0.2-0.5,0.3c-0.4,0.3-1,0.6-1.5,1.1c-0.5,0.4-1,1-1.3,1.3
			c-0.1,0.1-0.2,0.2-0.2,0.3c-0.1,0.1-0.1,0.2-0.2,0.2c0,0.1-0.1,0.1-0.1,0.1c0,0,0,0,0,0s0,0,0,0s0.1-0.1,0.1-0.1
			c0-0.1,0.1-0.1,0.2-0.2c0.1-0.1,0.1-0.2,0.2-0.3c0.3-0.4,0.8-0.9,1.3-1.3c0.5-0.5,1.1-0.8,1.5-1.1c0.2-0.1,0.4-0.2,0.5-0.3
			C16.5,12.6,16.5,12.6,16.5,12.6z"/>
		<path class="st29" d="M15.9,20.2C15.9,20.2,15.9,20.2,15.9,20.2c0,0.1,0,0.2,0,0.2c0,0,0,0.1,0,0.2c0,0.2-0.1,0.6,0,1.1
			c0,0.1,0,0.2,0,0.3c0,0.1,0,0.1,0,0.2c0,0,0,0.1,0,0.1c0,0,0,0.1,0,0.1c0,0.1,0,0.1,0,0.2c0,0.1,0,0.1,0,0.2
			c0,0.1,0.1,0.2,0.1,0.4c0.1,0.2,0.2,0.5,0.4,0.8s0.3,0.5,0.5,0.7c0.4,0.4,0.8,0.8,1.3,1.1c0.2,0.1,0.5,0.2,0.7,0.3
			c0.2,0.1,0.5,0.2,0.7,0.2c0.4,0.1,0.8,0.1,1,0.1c0,0,0.1,0,0.1,0s0.1,0,0.1,0c0,0,0.1,0,0.1,0c0,0,0.1,0,0.1,0s0,0,0,0l0.1,0.8
			c0,0-0.2,0-0.5,0c-0.3,0-0.7,0-1.2-0.1c-0.2,0-0.5-0.1-0.8-0.2c-0.3-0.1-0.5-0.2-0.8-0.4c-0.5-0.3-1.1-0.7-1.5-1.2
			c-0.2-0.2-0.4-0.5-0.6-0.8c-0.2-0.3-0.3-0.6-0.4-0.9c-0.1-0.2-0.1-0.3-0.2-0.4c0-0.1,0-0.2-0.1-0.2s0-0.1,0-0.2c0,0,0-0.1,0-0.1
			s0-0.1,0-0.1c0-0.1,0-0.1,0-0.2c0-0.1,0-0.3,0-0.4c0-0.5,0-0.9,0-1.2c0-0.1,0-0.1,0-0.2s0-0.1,0-0.2c0-0.1,0-0.1,0-0.1L15.9,20.2z
			"/>
		<path class="st30" d="M15.9,20.2C15.9,20.2,15.9,20.2,15.9,20.2c0,0.1,0,0.2,0,0.2c0,0,0,0.1,0,0.2c0,0.2-0.1,0.6,0,1.1
			c0,0.1,0,0.2,0,0.3c0,0.1,0,0.1,0,0.2c0,0,0,0.1,0,0.1c0,0,0,0.1,0,0.1c0,0.1,0,0.1,0,0.2c0,0.1,0,0.1,0,0.2
			c0,0.1,0.1,0.2,0.1,0.4c0.1,0.2,0.2,0.5,0.4,0.8s0.3,0.5,0.5,0.7c0.4,0.4,0.8,0.8,1.3,1.1c0.2,0.1,0.5,0.2,0.7,0.3
			c0.2,0.1,0.5,0.2,0.7,0.2c0.4,0.1,0.8,0.1,1,0.1c0,0,0.1,0,0.1,0s0.1,0,0.1,0c0,0,0.1,0,0.1,0c0,0,0.1,0,0.1,0s0,0,0,0l0.1,0.8
			c0,0-0.2,0-0.5,0c-0.3,0-0.7,0-1.2-0.1c-0.2,0-0.5-0.1-0.8-0.2c-0.3-0.1-0.5-0.2-0.8-0.4c-0.5-0.3-1.1-0.7-1.5-1.2
			c-0.2-0.2-0.4-0.5-0.6-0.8c-0.2-0.3-0.3-0.6-0.4-0.9c-0.1-0.2-0.1-0.3-0.2-0.4c0-0.1,0-0.2-0.1-0.2s0-0.1,0-0.2c0,0,0-0.1,0-0.1
			s0-0.1,0-0.1c0-0.1,0-0.1,0-0.2c0-0.1,0-0.3,0-0.4c0-0.5,0-0.9,0-1.2c0-0.1,0-0.1,0-0.2s0-0.1,0-0.2c0-0.1,0-0.1,0-0.1L15.9,20.2z
			"/>
		<path class="st31" d="M24.5,22.7C24.5,22.7,24.5,22.7,24.5,22.7c0-0.1,0.1-0.2,0.1-0.2c0,0,0,0,0-0.1c0,0,0-0.1,0-0.1
			c0.1-0.2,0.2-0.6,0.2-1c0-0.4,0-0.9-0.2-1.5c-0.1-0.3-0.2-0.5-0.3-0.8s-0.3-0.5-0.5-0.7s-0.4-0.4-0.6-0.6s-0.5-0.3-0.7-0.4
			c-0.5-0.2-1-0.3-1.4-0.3c-0.2,0-0.4,0-0.6,0c0,0-0.1,0-0.1,0c0,0-0.1,0-0.1,0c0,0-0.1,0-0.1,0c0,0-0.1,0-0.1,0c-0.1,0-0.1,0-0.2,0
			c0,0-0.1,0-0.1,0c-0.1,0-0.1,0-0.1,0l-0.4-1.2c0,0,0,0,0.1,0c0,0,0.1,0,0.2,0c0.1,0,0.1,0,0.2,0c0,0,0.1,0,0.1,0c0,0,0.1,0,0.1,0
			s0.1,0,0.2,0c0,0,0.1,0,0.2,0c0.2,0,0.5,0,0.8,0c0.6,0,1.2,0.1,1.9,0.4c0.3,0.1,0.7,0.3,1,0.5c0.3,0.2,0.6,0.5,0.8,0.7
			c0.5,0.5,0.9,1.2,1.1,1.9c0.1,0.3,0.2,0.7,0.2,1c0,0.3,0,0.6,0,0.9c0,0.6-0.1,1-0.2,1.3c0,0,0,0.1,0,0.1c0,0,0,0.1,0,0.1
			c0,0.1,0,0.1-0.1,0.2c0,0.1,0,0.1,0,0.1L24.5,22.7z"/>
		<path class="st30" d="M24.5,22.7C24.5,22.7,24.5,22.7,24.5,22.7c0-0.1,0.1-0.2,0.1-0.2c0,0,0,0,0-0.1c0,0,0-0.1,0-0.1
			c0.1-0.2,0.2-0.6,0.2-1c0-0.4,0-0.9-0.2-1.5c-0.1-0.3-0.2-0.5-0.3-0.8s-0.3-0.5-0.5-0.7s-0.4-0.4-0.6-0.6s-0.5-0.3-0.7-0.4
			c-0.5-0.2-1-0.3-1.4-0.3c-0.2,0-0.4,0-0.6,0c0,0-0.1,0-0.1,0c0,0-0.1,0-0.1,0c0,0-0.1,0-0.1,0c0,0-0.1,0-0.1,0c-0.1,0-0.1,0-0.2,0
			c0,0-0.1,0-0.1,0c-0.1,0-0.1,0-0.1,0l-0.4-1.2c0,0,0,0,0.1,0c0,0,0.1,0,0.2,0c0.1,0,0.1,0,0.2,0c0,0,0.1,0,0.1,0c0,0,0.1,0,0.1,0
			s0.1,0,0.2,0c0,0,0.1,0,0.2,0c0.2,0,0.5,0,0.8,0c0.6,0,1.2,0.1,1.9,0.4c0.3,0.1,0.7,0.3,1,0.5c0.3,0.2,0.6,0.5,0.8,0.7
			c0.5,0.5,0.9,1.2,1.1,1.9c0.1,0.3,0.2,0.7,0.2,1c0,0.3,0,0.6,0,0.9c0,0.6-0.1,1-0.2,1.3c0,0,0,0.1,0,0.1c0,0,0,0.1,0,0.1
			c0,0.1,0,0.1-0.1,0.2c0,0.1,0,0.1,0,0.1L24.5,22.7z"/>
		<path class="st32" d="M15.8,22.7C15.8,22.7,15.8,22.7,15.8,22.7C15.8,22.8,15.8,22.8,15.8,22.7c0,0.1,0.1,0.2,0.1,0.3
			c0,0,0,0.1,0,0.1s0,0.1,0.1,0.2s0,0.1,0.1,0.2c0,0.1,0.1,0.1,0.1,0.2c0.1,0.3,0.3,0.6,0.6,0.9s0.5,0.6,0.8,0.8s0.7,0.5,1,0.6
			c0.3,0.2,0.7,0.3,1,0.3c0.3,0.1,0.5,0.1,0.7,0.1c0,0,0.1,0,0.1,0c0,0,0.1,0,0.1,0c0,0,0.1,0,0.1,0l0,0.5c0,0,0,0-0.1,0
			c0,0-0.1,0-0.1,0c0,0-0.1,0-0.1,0c-0.2,0-0.5,0-0.8-0.1c-0.3-0.1-0.7-0.2-1.1-0.4c-0.4-0.2-0.8-0.4-1.1-0.7
			c-0.4-0.3-0.7-0.6-0.9-0.9c-0.3-0.3-0.5-0.7-0.6-1c0-0.1-0.1-0.2-0.1-0.2c0-0.1-0.1-0.1-0.1-0.2s0-0.1-0.1-0.2s0-0.1-0.1-0.2
			c0-0.1-0.1-0.2-0.1-0.2c0,0,0,0,0-0.1l0,0L15.8,22.7z"/>
		<path class="st33" d="M17.8,17.9C17.8,17.9,17.8,17.9,17.8,17.9c-0.1,0.1-0.1,0.1-0.2,0.2c-0.1,0.1-0.3,0.3-0.4,0.5
			c-0.2,0.2-0.3,0.5-0.5,0.8c0,0.1-0.1,0.2-0.1,0.2c0,0.1-0.1,0.2-0.1,0.2c0,0.2-0.1,0.3-0.1,0.5c-0.1,0.3-0.1,0.7-0.1,1
			c0,0.3,0.1,0.6,0.1,0.9c0,0.1,0.1,0.2,0.1,0.3c0,0,0,0.1,0,0.1c0,0,0,0,0,0.1c0,0,0,0,0,0.1c0,0.1,0,0.1,0.1,0.2c0,0,0,0.1,0,0.1
			l-1.5,0.7c0,0,0,0,0-0.1c0,0,0-0.1-0.1-0.2c0,0,0,0,0-0.1c0,0,0-0.1,0-0.1c0-0.1,0-0.1-0.1-0.2c0-0.1-0.1-0.3-0.1-0.5
			c-0.1-0.3-0.2-0.8-0.2-1.2s0-0.9,0.1-1.4c0-0.2,0.1-0.5,0.2-0.7c0-0.1,0.1-0.2,0.1-0.3c0-0.1,0.1-0.2,0.1-0.3
			c0.2-0.4,0.4-0.8,0.6-1.1s0.4-0.5,0.6-0.7c0.1-0.1,0.1-0.1,0.2-0.2c0,0,0.1-0.1,0.1-0.1L17.8,17.9z"/>
		<path class="st30" d="M17.8,17.9C17.8,17.9,17.8,17.9,17.8,17.9c-0.1,0.1-0.1,0.1-0.2,0.2c-0.1,0.1-0.3,0.3-0.4,0.5
			c-0.2,0.2-0.3,0.5-0.5,0.8c0,0.1-0.1,0.2-0.1,0.2c0,0.1-0.1,0.2-0.1,0.2c0,0.2-0.1,0.3-0.1,0.5c-0.1,0.3-0.1,0.7-0.1,1
			c0,0.3,0.1,0.6,0.1,0.9c0,0.1,0.1,0.2,0.1,0.3c0,0,0,0.1,0,0.1c0,0,0,0,0,0.1c0,0,0,0,0,0.1c0,0.1,0,0.1,0.1,0.2c0,0,0,0.1,0,0.1
			l-1.5,0.7c0,0,0,0,0-0.1c0,0,0-0.1-0.1-0.2c0,0,0,0,0-0.1c0,0,0-0.1,0-0.1c0-0.1,0-0.1-0.1-0.2c0-0.1-0.1-0.3-0.1-0.5
			c-0.1-0.3-0.2-0.8-0.2-1.2s0-0.9,0.1-1.4c0-0.2,0.1-0.5,0.2-0.7c0-0.1,0.1-0.2,0.1-0.3c0-0.1,0.1-0.2,0.1-0.3
			c0.2-0.4,0.4-0.8,0.6-1.1s0.4-0.5,0.6-0.7c0.1-0.1,0.1-0.1,0.2-0.2c0,0,0.1-0.1,0.1-0.1L17.8,17.9z"/>
		<path class="st34" d="M20.9,16.3C20.9,16.3,20.9,16.3,20.9,16.3c-0.1,0-0.2,0-0.2,0s-0.1,0-0.2,0c-0.2,0-0.6,0.1-1,0.2
			s-0.9,0.3-1.3,0.6c-0.5,0.3-0.9,0.7-1.2,1.2c-0.2,0.2-0.3,0.5-0.5,0.7s-0.2,0.5-0.3,0.8c-0.2,0.5-0.2,1-0.2,1.5
			c0,0.4,0.1,0.8,0.1,1c0,0.1,0,0.2,0.1,0.3c0,0.1,0,0.1,0,0.1l-0.4,0.1c0,0,0,0,0-0.1s0-0.2-0.1-0.3c-0.1-0.3-0.1-0.7-0.1-1.1
			c0-0.5,0.1-1,0.2-1.6c0.1-0.3,0.2-0.6,0.3-0.8c0.1-0.3,0.3-0.5,0.5-0.8c0.4-0.5,0.8-0.9,1.3-1.2c0.5-0.3,1-0.5,1.4-0.7
			c0.5-0.1,0.8-0.2,1.1-0.2c0.1,0,0.1,0,0.2,0s0.1,0,0.1,0c0.1,0,0.1,0,0.1,0L20.9,16.3z"/>
		<path class="st35" d="M25.3,20.6C25.3,20.6,25.3,20.6,25.3,20.6c0-0.1,0-0.2,0-0.2c0,0,0-0.1,0-0.2c0-0.1-0.1-0.3-0.1-0.4
			c0,0,0-0.1,0-0.1c0,0,0-0.1,0-0.1c0,0,0-0.1,0-0.1c0,0,0-0.1-0.1-0.1s0-0.1-0.1-0.1s0-0.1-0.1-0.1c0,0,0,0,0-0.1c0,0,0,0,0-0.1
			c0,0-0.1-0.1-0.1-0.2c-0.1-0.2-0.3-0.4-0.4-0.6s-0.4-0.4-0.6-0.5s-0.4-0.3-0.7-0.4c-0.5-0.2-1-0.4-1.5-0.5c-0.2,0-0.5,0-0.7,0
			c-0.2,0-0.5,0-0.7,0.1c-0.4,0.1-0.7,0.2-0.9,0.3c-0.1,0-0.2,0.1-0.2,0.1s-0.1,0-0.1,0l-0.3-0.5c0,0,0,0,0.1,0
			c0.1,0,0.2-0.1,0.3-0.1c0.2-0.1,0.6-0.2,1.1-0.3c0.2,0,0.5-0.1,0.7-0.1c0.3,0,0.5,0,0.8,0c0.6,0.1,1.2,0.2,1.7,0.5
			c0.3,0.1,0.5,0.3,0.8,0.5c0.2,0.2,0.5,0.4,0.7,0.6c0.2,0.2,0.4,0.4,0.5,0.7c0,0.1,0.1,0.1,0.1,0.2c0,0,0,0.1,0,0.1
			c0,0,0,0.1,0,0.1c0,0.1,0.1,0.1,0.1,0.2s0,0.1,0.1,0.2s0,0.1,0.1,0.2c0,0,0,0.1,0.1,0.2c0,0,0,0.1,0,0.2c0,0,0,0.1,0,0.1
			c0,0.2,0.1,0.3,0.1,0.5c0,0.1,0,0.1,0,0.2s0,0.1,0,0.1c0,0.1,0,0.1,0,0.1L25.3,20.6z"/>
		<path class="st36" d="M24.1,24.8C24.1,24.8,24.1,24.7,24.1,24.8C24.2,24.7,24.2,24.7,24.1,24.8c0.2-0.2,0.2-0.2,0.3-0.4
			c0.1-0.1,0.2-0.3,0.4-0.5c0.1-0.2,0.3-0.4,0.4-0.7c0.2-0.5,0.4-1.1,0.5-1.8c0-0.3,0-0.7-0.1-1.1s-0.2-0.7-0.3-1.1
			c-0.1-0.3-0.3-0.7-0.5-1c-0.2-0.3-0.5-0.6-0.7-0.8c-0.5-0.5-1.1-0.8-1.6-1c-0.3-0.1-0.5-0.2-0.7-0.2s-0.4-0.1-0.6-0.1
			c-0.2,0-0.3,0-0.4,0s-0.1,0-0.1,0s0,0,0.1,0c0.1,0,0.2,0,0.4,0c0.2,0,0.4,0,0.6,0.1s0.5,0.1,0.7,0.2c0.5,0.2,1.1,0.5,1.6,1
			c0.3,0.2,0.5,0.5,0.7,0.8s0.4,0.6,0.5,1s0.2,0.7,0.3,1.1c0.1,0.4,0.1,0.7,0.1,1.1c0,0.7-0.2,1.3-0.5,1.8c-0.1,0.2-0.2,0.5-0.4,0.7
			s-0.2,0.3-0.4,0.5S24.3,24.6,24.1,24.8C24.2,24.7,24.2,24.7,24.1,24.8C24.1,24.7,24.1,24.8,24.1,24.8"/>
		<path class="st30" d="M24.1,24.8C24.1,24.8,24.1,24.7,24.1,24.8C24.2,24.7,24.2,24.7,24.1,24.8c0.2-0.2,0.2-0.2,0.3-0.4
			c0.1-0.1,0.2-0.3,0.4-0.5c0.1-0.2,0.3-0.4,0.4-0.7c0.2-0.5,0.4-1.1,0.5-1.8c0-0.3,0-0.7-0.1-1.1s-0.2-0.7-0.3-1.1
			c-0.1-0.3-0.3-0.7-0.5-1c-0.2-0.3-0.5-0.6-0.7-0.8c-0.5-0.5-1.1-0.8-1.6-1c-0.3-0.1-0.5-0.2-0.7-0.2s-0.4-0.1-0.6-0.1
			c-0.2,0-0.3,0-0.4,0s-0.1,0-0.1,0s0,0,0.1,0c0.1,0,0.2,0,0.4,0c0.2,0,0.4,0,0.6,0.1s0.5,0.1,0.7,0.2c0.5,0.2,1.1,0.5,1.6,1
			c0.3,0.2,0.5,0.5,0.7,0.8s0.4,0.6,0.5,1s0.2,0.7,0.3,1.1c0.1,0.4,0.1,0.7,0.1,1.1c0,0.7-0.2,1.3-0.5,1.8c-0.1,0.2-0.2,0.5-0.4,0.7
			s-0.2,0.3-0.4,0.5S24.3,24.6,24.1,24.8C24.2,24.7,24.2,24.7,24.1,24.8C24.1,24.7,24.1,24.8,24.1,24.8z"/>
		<path class="st37" d="M24.4,25.1C24.4,25.1,24.4,25,24.4,25.1c0.1-0.1,0.2-0.2,0.2-0.2c0.1-0.1,0.3-0.4,0.5-0.6
			c0.2-0.3,0.4-0.6,0.6-1c0.1-0.2,0.2-0.4,0.2-0.6c0-0.1,0.1-0.2,0.1-0.3c0-0.1,0-0.1,0-0.2l0-0.2c0-0.1,0-0.1,0-0.2
			c0-0.1,0-0.1,0-0.2c0-0.1,0-0.2,0-0.3c0-0.2,0-0.5,0-0.7c0-0.4-0.2-0.8-0.3-1.1c0,0,0-0.1,0-0.1c0,0,0-0.1,0-0.1c0,0,0-0.1,0-0.1
			c0,0,0-0.1,0-0.1c0-0.1-0.1-0.1-0.1-0.2c0,0,0-0.1-0.1-0.2c0,0,0,0,0-0.1s0,0,0,0c0,0,0-0.1,0-0.1c0,0,0-0.1,0-0.1l1-0.7
			c0,0,0,0,0,0.1c0,0,0,0.1,0.1,0.1c0,0,0,0,0,0.1c0,0,0,0,0,0.1c0,0,0.1,0.1,0.1,0.2s0.1,0.1,0.1,0.2c0,0,0,0.1,0,0.1
			c0,0,0,0.1,0,0.1c0,0,0,0.1,0.1,0.1s0,0.1,0,0.2c0.1,0.4,0.3,0.9,0.3,1.4c0,0.3,0,0.5,0,0.8c0,0.1,0,0.3,0,0.4c0,0.1,0,0.1,0,0.2
			c0,0.1,0,0.1,0,0.2l0,0.2c0,0.1,0,0.1,0,0.2c0,0.1-0.1,0.3-0.1,0.4c-0.1,0.3-0.2,0.5-0.3,0.8c-0.2,0.5-0.5,0.9-0.7,1.3
			c-0.2,0.3-0.5,0.6-0.7,0.8c-0.1,0.1-0.2,0.2-0.2,0.2S25.2,26,25.2,26L24.4,25.1z"/>
		<path class="st30" d="M24.4,25.1C24.4,25.1,24.4,25,24.4,25.1c0.1-0.1,0.2-0.2,0.2-0.2c0.1-0.1,0.3-0.4,0.5-0.6
			c0.2-0.3,0.4-0.6,0.6-1c0.1-0.2,0.2-0.4,0.2-0.6c0-0.1,0.1-0.2,0.1-0.3c0-0.1,0-0.1,0-0.2l0-0.2c0-0.1,0-0.1,0-0.2
			c0-0.1,0-0.1,0-0.2c0-0.1,0-0.2,0-0.3c0-0.2,0-0.5,0-0.7c0-0.4-0.2-0.8-0.3-1.1c0,0,0-0.1,0-0.1c0,0,0-0.1,0-0.1c0,0,0-0.1,0-0.1
			c0,0,0-0.1,0-0.1c0-0.1-0.1-0.1-0.1-0.2c0,0,0-0.1-0.1-0.2c0,0,0,0,0-0.1s0,0,0,0c0,0,0-0.1,0-0.1c0,0,0-0.1,0-0.1l1-0.7
			c0,0,0,0,0,0.1c0,0,0,0.1,0.1,0.1c0,0,0,0,0,0.1c0,0,0,0,0,0.1c0,0,0.1,0.1,0.1,0.2s0.1,0.1,0.1,0.2c0,0,0,0.1,0,0.1
			c0,0,0,0.1,0,0.1c0,0,0,0.1,0.1,0.1s0,0.1,0,0.2c0.1,0.4,0.3,0.9,0.3,1.4c0,0.3,0,0.5,0,0.8c0,0.1,0,0.3,0,0.4c0,0.1,0,0.1,0,0.2
			c0,0.1,0,0.1,0,0.2l0,0.2c0,0.1,0,0.1,0,0.2c0,0.1-0.1,0.3-0.1,0.4c-0.1,0.3-0.2,0.5-0.3,0.8c-0.2,0.5-0.5,0.9-0.7,1.3
			c-0.2,0.3-0.5,0.6-0.7,0.8c-0.1,0.1-0.2,0.2-0.2,0.2S25.2,26,25.2,26L24.4,25.1z"/>
		<path class="st38" d="M23.7,25.6c0,0,0,0,0.1-0.1c0,0,0,0,0.1,0c0,0,0,0,0.1-0.1c0.1,0,0.1-0.1,0.2-0.2c0,0,0.1-0.1,0.1-0.1
			c0,0,0.1-0.1,0.1-0.1c0.1-0.1,0.2-0.2,0.3-0.3c0.2-0.2,0.4-0.4,0.6-0.7s0.4-0.6,0.5-1c0-0.1,0.1-0.2,0.1-0.3s0.1-0.2,0.1-0.3
			c0-0.1,0-0.2,0.1-0.3s0-0.2,0.1-0.3c0,0,0-0.1,0-0.2c0,0,0-0.1,0-0.2c0-0.1,0-0.2,0-0.3c0,0,0-0.1,0-0.2s0-0.1,0-0.2
			c0-0.1,0-0.2,0-0.3c0-0.2,0-0.4-0.1-0.7c0-0.2-0.1-0.4-0.2-0.6c-0.1-0.2-0.2-0.4-0.3-0.6s-0.2-0.4-0.3-0.6c-0.2-0.4-0.5-0.7-0.8-1
			c-0.3-0.3-0.6-0.5-1-0.7c-0.3-0.2-0.7-0.3-1-0.4s-0.6-0.2-0.9-0.2c-0.3,0-0.5,0-0.7,0c0,0-0.1,0-0.1,0c0,0-0.1,0-0.1,0
			c-0.1,0-0.1,0-0.2,0c-0.1,0-0.2,0-0.2,0l-0.1-0.5c0,0,0.1,0,0.2,0c0.1,0,0.1,0,0.2,0c0,0,0.1,0,0.1,0c0,0,0.1,0,0.2,0
			c0.2,0,0.5,0,0.8,0.1c0.3,0,0.6,0.1,1,0.2c0.3,0.1,0.7,0.3,1.1,0.5c0.4,0.2,0.7,0.5,1.1,0.8c0.3,0.3,0.7,0.7,0.9,1.1
			c0.1,0.2,0.2,0.4,0.4,0.6s0.2,0.4,0.3,0.7c0.1,0.2,0.1,0.5,0.2,0.7c0,0.2,0.1,0.5,0.1,0.7c0,0.1,0,0.2,0,0.4c0,0.1,0,0.1,0,0.2
			s0,0.1,0,0.2c0,0.1,0,0.2,0,0.3c0,0.1,0,0.1,0,0.2c0,0.1,0,0.1,0,0.2c0,0.1,0,0.2-0.1,0.3c0,0.1,0,0.2-0.1,0.3
			c0,0.1-0.1,0.2-0.1,0.3c0,0.1-0.1,0.2-0.1,0.3c-0.2,0.4-0.3,0.7-0.5,1c-0.2,0.3-0.4,0.6-0.6,0.8c-0.1,0.1-0.2,0.2-0.3,0.3
			c0,0-0.1,0.1-0.1,0.1c0,0-0.1,0.1-0.1,0.1c-0.1,0.1-0.2,0.1-0.2,0.2c0,0-0.1,0-0.1,0.1s-0.1,0-0.1,0c-0.1,0.1-0.2,0.1-0.2,0.1
			L23.7,25.6z"/>
		<path class="st39" d="M24.2,18C24.2,18,24.2,18,24.2,18c-0.1-0.1-0.2-0.2-0.2-0.2c-0.1-0.1-0.4-0.3-0.6-0.5
			c-0.1,0-0.2-0.1-0.2-0.1c0,0-0.1,0-0.1-0.1c0,0-0.1,0-0.1-0.1c-0.1,0-0.2-0.1-0.3-0.1c0,0-0.1,0-0.1-0.1s-0.1,0-0.2,0
			c0,0-0.1,0-0.2,0c0,0-0.1,0-0.2,0c0,0-0.1,0-0.2,0c0,0-0.1,0-0.2,0c-0.2,0-0.4-0.1-0.7-0.1c-0.2,0-0.5,0-0.7,0c-0.1,0-0.1,0-0.2,0
			c0,0-0.1,0-0.2,0s-0.1,0-0.2,0s-0.1,0-0.2,0s-0.1,0-0.2,0c0,0-0.1,0-0.2,0c-0.1,0-0.2,0.1-0.3,0.1c0,0-0.1,0-0.1,0
			c0,0-0.1,0-0.1,0.1c-0.1,0-0.2,0.1-0.2,0.1c-0.3,0.2-0.5,0.3-0.7,0.5c-0.1,0.1-0.1,0.1-0.2,0.2s-0.1,0.1-0.1,0.1l-1-1.1
			c0,0,0,0,0.1-0.1c0,0,0.1-0.1,0.2-0.2c0.2-0.2,0.5-0.4,0.9-0.6c0.1,0,0.2-0.1,0.3-0.2c0,0,0.1,0,0.2-0.1c0.1,0,0.1,0,0.2-0.1
			c0.1,0,0.2-0.1,0.4-0.1c0.1,0,0.1,0,0.2-0.1c0.1,0,0.1,0,0.2,0c0.1,0,0.1,0,0.2,0c0.1,0,0.1,0,0.2,0c0.1,0,0.1,0,0.2,0
			s0.1,0,0.2,0c0.3,0,0.6,0,0.9,0c0.3,0,0.6,0,0.9,0.1c0.1,0,0.1,0,0.2,0c0.1,0,0.1,0,0.2,0c0.1,0,0.1,0,0.2,0.1s0.1,0,0.2,0.1
			c0.1,0,0.1,0,0.2,0.1c0.1,0,0.1,0,0.2,0.1c0.1,0,0.2,0.1,0.4,0.2c0.1,0,0.1,0.1,0.2,0.1c0,0,0.1,0.1,0.2,0.1
			c0.1,0.1,0.2,0.1,0.3,0.2c0.4,0.2,0.7,0.5,0.8,0.7c0.1,0.1,0.2,0.2,0.2,0.2c0,0,0.1,0.1,0.1,0.1L24.2,18z"/>
		<path class="st30" d="M24.2,18C24.2,18,24.2,18,24.2,18c-0.1-0.1-0.2-0.2-0.2-0.2c-0.1-0.1-0.4-0.3-0.6-0.5
			c-0.1,0-0.2-0.1-0.2-0.1c0,0-0.1,0-0.1-0.1c0,0-0.1,0-0.1-0.1c-0.1,0-0.2-0.1-0.3-0.1c0,0-0.1,0-0.1-0.1s-0.1,0-0.2,0
			c0,0-0.1,0-0.2,0c0,0-0.1,0-0.2,0c0,0-0.1,0-0.2,0c0,0-0.1,0-0.2,0c-0.2,0-0.4-0.1-0.7-0.1c-0.2,0-0.5,0-0.7,0c-0.1,0-0.1,0-0.2,0
			c0,0-0.1,0-0.2,0s-0.1,0-0.2,0s-0.1,0-0.2,0s-0.1,0-0.2,0c0,0-0.1,0-0.2,0c-0.1,0-0.2,0.1-0.3,0.1c0,0-0.1,0-0.1,0
			c0,0-0.1,0-0.1,0.1c-0.1,0-0.2,0.1-0.2,0.1c-0.3,0.2-0.5,0.3-0.7,0.5c-0.1,0.1-0.1,0.1-0.2,0.2s-0.1,0.1-0.1,0.1l-1-1.1
			c0,0,0,0,0.1-0.1c0,0,0.1-0.1,0.2-0.2c0.2-0.2,0.5-0.4,0.9-0.6c0.1,0,0.2-0.1,0.3-0.2c0,0,0.1,0,0.2-0.1c0.1,0,0.1,0,0.2-0.1
			c0.1,0,0.2-0.1,0.4-0.1c0.1,0,0.1,0,0.2-0.1c0.1,0,0.1,0,0.2,0c0.1,0,0.1,0,0.2,0c0.1,0,0.1,0,0.2,0c0.1,0,0.1,0,0.2,0
			s0.1,0,0.2,0c0.3,0,0.6,0,0.9,0c0.3,0,0.6,0,0.9,0.1c0.1,0,0.1,0,0.2,0c0.1,0,0.1,0,0.2,0c0.1,0,0.1,0,0.2,0.1s0.1,0,0.2,0.1
			c0.1,0,0.1,0,0.2,0.1c0.1,0,0.1,0,0.2,0.1c0.1,0,0.2,0.1,0.4,0.2c0.1,0,0.1,0.1,0.2,0.1c0,0,0.1,0.1,0.2,0.1
			c0.1,0.1,0.2,0.1,0.3,0.2c0.4,0.2,0.7,0.5,0.8,0.7c0.1,0.1,0.2,0.2,0.2,0.2c0,0,0.1,0.1,0.1,0.1L24.2,18z"/>
		<path class="st40" d="M23.3,17.4C23.3,17.4,23.3,17.4,23.3,17.4c-0.1-0.1-0.2-0.1-0.2-0.1c-0.2-0.1-0.4-0.2-0.6-0.3
			c-0.3-0.1-0.6-0.2-1-0.2c0,0-0.1,0-0.1,0c0,0-0.1,0-0.1,0c-0.1,0-0.2,0-0.3,0c-0.2,0-0.4,0-0.6,0c-0.1,0-0.2,0-0.3,0
			c-0.1,0-0.2,0-0.3,0.1c0,0-0.1,0-0.1,0c0,0-0.1,0-0.1,0c-0.1,0-0.2,0.1-0.3,0.1c-0.3,0.1-0.7,0.3-0.9,0.5
			c-0.2,0.2-0.4,0.3-0.5,0.5c-0.1,0.1-0.1,0.1-0.1,0.1s0,0,0,0l-0.3-0.3c0,0,0,0,0-0.1c0,0,0.1-0.1,0.2-0.2c0.1-0.1,0.3-0.3,0.6-0.5
			s0.6-0.4,1-0.5c0.1,0,0.2-0.1,0.3-0.1c0,0,0.1,0,0.2,0c0,0,0.1,0,0.2,0c0.1,0,0.2,0,0.3-0.1c0.1,0,0.2,0,0.3,0c0.2,0,0.4,0,0.6,0
			c0.1,0,0.2,0,0.3,0c0,0,0.1,0,0.2,0c0,0,0.1,0,0.2,0c0.4,0.1,0.8,0.2,1.1,0.3c0.3,0.1,0.5,0.2,0.7,0.3c0.1,0,0.2,0.1,0.2,0.1
			c0,0,0.1,0,0.1,0L23.3,17.4z"/>
		<path class="st36" d="M16,23.8c0,0,0,0,0.1,0.1s0.1,0.2,0.2,0.3c0.2,0.2,0.4,0.5,0.6,0.8c0.2,0.3,0.5,0.5,0.8,0.7
			c0.1,0,0.1,0.1,0.2,0.1c0,0,0.1,0.1,0.1,0.1s0.1,0,0.1,0s0,0,0,0s0,0,0,0c0,0,0,0-0.1,0c0,0-0.1,0-0.1-0.1c0,0-0.1-0.1-0.2-0.1
			c-0.2-0.2-0.5-0.4-0.8-0.7c-0.2-0.3-0.5-0.6-0.6-0.8c-0.1-0.1-0.1-0.2-0.2-0.3C16,23.8,16,23.8,16,23.8"/>
		<path class="st30" d="M16,23.8c0,0,0,0,0.1,0.1s0.1,0.2,0.2,0.3c0.2,0.2,0.4,0.5,0.6,0.8c0.2,0.3,0.5,0.5,0.8,0.7
			c0.1,0,0.1,0.1,0.2,0.1c0,0,0.1,0.1,0.1,0.1s0.1,0,0.1,0s0,0,0,0s0,0,0,0c0,0,0,0-0.1,0c0,0-0.1,0-0.1-0.1c0,0-0.1-0.1-0.2-0.1
			c-0.2-0.2-0.5-0.4-0.8-0.7c-0.2-0.3-0.5-0.6-0.6-0.8c-0.1-0.1-0.1-0.2-0.2-0.3C16,23.8,16,23.8,16,23.8z"/>
		<path class="st41" d="M17.3,17.6c0,0,0,0-0.1,0.1c0,0-0.1,0.1-0.1,0.1S17,17.9,16.9,18c-0.2,0.3-0.5,0.7-0.7,1.2
			c-0.1,0.2-0.2,0.5-0.2,0.7c0,0.1,0,0.1,0,0.2c0,0,0,0.1,0,0.2c0,0.1,0,0.2,0,0.3c0,0.2,0,0.3,0,0.5c0,0.1,0,0.2,0,0.2l-0.5,0
			c0,0,0-0.1,0-0.2s0-0.3,0-0.5c0-0.1,0-0.2,0.1-0.3c0-0.1,0-0.1,0-0.2c0-0.1,0-0.1,0-0.2c0.1-0.2,0.2-0.5,0.3-0.8
			c0.2-0.5,0.5-1,0.8-1.3c0.1-0.1,0.1-0.2,0.2-0.2c0.1-0.1,0.1-0.1,0.1-0.2c0.1-0.1,0.1-0.1,0.1-0.1L17.3,17.6z"/>
		
			<radialGradient id="SVGID_1_" cx="20.8448" cy="22.4584" r="2.085" gradientTransform="matrix(1 0 0 -1 0 43.7667)" gradientUnits="userSpaceOnUse">
			<stop  offset="0" style="stop-color:#FFFFFF"/>
			<stop  offset="0.1869" style="stop-color:#C8B7D4"/>
			<stop  offset="0.3594" style="stop-color:#9A7CB1"/>
			<stop  offset="0.5055" style="stop-color:#7A5298"/>
			<stop  offset="0.6194" style="stop-color:#653889"/>
			<stop  offset="0.6872" style="stop-color:#5E2E83"/>
			<stop  offset="1" style="stop-color:#5E2E83"/>
		</radialGradient>
		<path class="st42" d="M18.8,21.3c0,1.2,0.9,2.1,2.1,2.1s2.1-0.9,2.1-2.1c0-1.2-0.9-2.1-2.1-2.1C19.7,19.2,18.8,20.2,18.8,21.3"/>
	</g>
	<g>
		<rect x="60.3" y="3.4" class="st36" width="4.2" height="24.3"/>
		<path class="st43" d="M128.1,28.3V24h18.2c1.1,0,2-0.3,2.6-0.9c0.6-0.6,0.9-1.4,0.9-2.4c0-1.1-0.3-1.9-0.9-2.4s-1.5-0.8-2.6-0.8
			h-11.2c-1.1,0-2.2-0.2-3.1-0.5c-0.9-0.3-1.7-0.8-2.3-1.5c-0.6-0.6-1.1-1.4-1.5-2.2c-0.4-0.9-0.5-1.8-0.5-2.8c0-1,0.2-1.9,0.5-2.8
			c0.3-0.8,0.8-1.6,1.4-2.2s1.4-1.1,2.4-1.5c0.9-0.3,2-0.5,3.2-0.5h17.5v4.3h-17.5c-1,0-1.7,0.3-2.3,0.8s-0.8,1.3-0.8,2.2
			c0,1,0.3,1.7,0.8,2.2c0.6,0.5,1.3,0.8,2.2,0.8h11.1c2.5,0,4.4,0.6,5.6,1.8c1.3,1.2,1.9,3,1.9,5.4c0,1-0.2,2-0.5,2.9
			s-0.8,1.7-1.4,2.3s-1.4,1.2-2.4,1.5c-0.9,0.4-2.1,0.5-3.3,0.5C146.4,28.3,128.1,28.3,128.1,28.3z"/>
		<path class="st43" d="M126.4,24.4v3.9h-13.6c-1.9,0-3.5-0.2-4.9-0.7s-2.6-1.2-3.5-2.2c-0.9-1-1.6-2.3-2-3.8
			c-0.4-1.6-0.7-3.5-0.7-5.7c0-2.2,0.2-4.1,0.7-5.7c0.4-1.6,1.1-2.9,2-3.8c0.9-1,2.1-1.7,3.5-2.2c1.4-0.5,3-0.7,4.9-0.7h13.6v4.2
			h-13.6c-1.2,0-2.3,0.1-3.1,0.4c-0.9,0.3-1.6,0.8-2.1,1.4s-1,1.5-1.2,2.6s-0.4,2.4-0.4,4s0.1,2.9,0.4,4c0.3,1.1,0.7,1.9,1.2,2.6
			c0.6,0.6,1.3,1.1,2.1,1.4s1.9,0.4,3.1,0.4L126.4,24.4L126.4,24.4z"/>
		<path class="st36" d="M98.3,27.7l-4.7-16.9l-6.9,15.6c-0.2,0.5-0.5,0.9-0.9,1.2c-0.3,0.3-0.8,0.4-1.3,0.4c-1,0-1.7-0.5-2.2-1.6
			l-6.9-15.6l-4.7,16.9h-4.2L73,5.1c0.3-1.2,1-1.7,2.1-1.7c0.4,0,0.9,0.1,1.2,0.4s0.7,0.6,0.9,1.1l7.5,17l7.5-17
			c0.4-1,1.1-1.4,2-1.4c1,0,1.7,0.6,2,1.7l6.2,22.6C102.5,27.7,98.3,27.7,98.3,27.7z"/>
		<path class="st44" d="M156.4,27.1c0,0.8-0.6,1.4-1.4,1.4c-0.8,0-1.4-0.6-1.4-1.4s0.6-1.4,1.4-1.4
			C155.8,25.7,156.4,26.3,156.4,27.1 M156.2,27.1c0-0.8-0.5-1.2-1.2-1.2s-1.2,0.5-1.2,1.2c0,0.7,0.5,1.2,1.2,1.2
			C155.7,28.3,156.2,27.8,156.2,27.1 M155,26.4c0.3,0,0.5,0.2,0.5,0.4c0,0.2-0.1,0.3-0.3,0.4l0.4,0.6h-0.2l-0.3-0.5c0,0,0,0-0.1,0
			h-0.3v0.5h-0.2v-1.4H155z M155,27.1c0.2,0,0.4-0.1,0.4-0.3c0-0.2-0.1-0.3-0.4-0.3h-0.3v0.6H155z"/>
		<path class="st45" d="M67.8,39.1c-0.5,0.2-0.9,0.4-1.4,0.5s-1,0.2-1.5,0.2c-0.6,0-1.1-0.1-1.6-0.3s-0.9-0.5-1.3-0.8
			s-0.6-0.8-0.8-1.2c-0.2-0.5-0.3-1-0.3-1.6s0.1-1.1,0.3-1.6c0.2-0.5,0.5-0.9,0.8-1.2c0.3-0.3,0.8-0.6,1.3-0.8
			c0.5-0.2,1-0.3,1.6-0.3c1.2,0,2.1,0.3,2.8,1l-0.5,0.5c-0.1-0.1-0.3-0.3-0.4-0.4s-0.4-0.2-0.6-0.3s-0.4-0.1-0.6-0.2
			c-0.2,0-0.4-0.1-0.7-0.1c-0.5,0-1,0.1-1.4,0.2s-0.8,0.4-1,0.7c-0.3,0.3-0.5,0.6-0.7,1s-0.2,0.8-0.2,1.3s0.1,0.9,0.2,1.3
			s0.4,0.7,0.7,1c0.3,0.3,0.6,0.5,1,0.7c0.4,0.2,0.9,0.2,1.4,0.2c0.4,0,0.8,0,1.2-0.1s0.7-0.2,1-0.3v-2.5h-1.9v-0.6h2.6L67.8,39.1
			L67.8,39.1z"/>
		<path class="st45" d="M83.7,32.2h2.1c0.1,0,0.2,0,0.4,0s0.4,0,0.6,0.1c0.2,0,0.4,0.1,0.6,0.2c0.2,0.1,0.4,0.2,0.6,0.3
			c0.2,0.2,0.3,0.3,0.4,0.6c0.1,0.2,0.2,0.5,0.2,0.8c0,0.4-0.1,0.7-0.2,0.9c-0.1,0.2-0.3,0.4-0.5,0.6c-0.2,0.1-0.4,0.2-0.7,0.3
			s-0.5,0.1-0.7,0.2l2.3,3.6H88l-2.2-3.5h-1.4v3.5h-0.7L83.7,32.2L83.7,32.2z M84.5,35.5H86c0.4,0,0.7,0,0.9-0.1
			c0.2-0.1,0.4-0.2,0.6-0.3c0.1-0.1,0.2-0.3,0.3-0.4c0.1-0.2,0.1-0.3,0.1-0.4c0-0.1,0-0.3-0.1-0.4c-0.1-0.2-0.1-0.3-0.3-0.4
			s-0.3-0.2-0.6-0.3s-0.6-0.1-0.9-0.1h-1.5V35.5z"/>
		<path class="st45" d="M103.6,35.9c0-0.6,0.1-1.1,0.3-1.6c0.2-0.5,0.5-0.9,0.8-1.2c0.3-0.3,0.8-0.6,1.3-0.8c0.5-0.2,1-0.3,1.6-0.3
			s1.1,0.1,1.6,0.3c0.5,0.2,0.9,0.5,1.3,0.8c0.4,0.3,0.6,0.8,0.8,1.2s0.3,1,0.3,1.6s-0.1,1.1-0.3,1.6c-0.2,0.5-0.5,0.9-0.8,1.2
			c-0.4,0.3-0.8,0.6-1.3,0.8c-0.5,0.2-1,0.3-1.6,0.3s-1.1-0.1-1.6-0.3s-0.9-0.5-1.3-0.8s-0.6-0.8-0.8-1.2
			C103.7,37,103.6,36.5,103.6,35.9 M104.3,35.9c0,0.5,0.1,0.9,0.2,1.3c0.2,0.4,0.4,0.7,0.7,1c0.3,0.3,0.6,0.5,1,0.7
			c0.4,0.2,0.9,0.2,1.4,0.2c0.5,0,1-0.1,1.4-0.2c0.4-0.2,0.8-0.4,1-0.7c0.3-0.3,0.5-0.6,0.7-1c0.1-0.4,0.2-0.8,0.2-1.3
			s-0.1-0.9-0.2-1.3s-0.4-0.7-0.7-1c-0.3-0.3-0.6-0.5-1-0.7c-0.4-0.2-0.9-0.2-1.4-0.2c-0.5,0-1,0.1-1.4,0.2c-0.4,0.2-0.8,0.4-1,0.7
			c-0.3,0.3-0.5,0.6-0.7,1S104.3,35.5,104.3,35.9"/>
		<path class="st45" d="M132.7,36.8c0,0.4-0.1,0.8-0.1,1.1c-0.1,0.4-0.3,0.7-0.5,1s-0.5,0.5-0.9,0.7s-0.8,0.2-1.3,0.2
			s-1-0.1-1.3-0.2s-0.7-0.4-0.9-0.7s-0.4-0.6-0.5-1c-0.1-0.4-0.1-0.7-0.1-1.1v-4.6h0.7v4.4c0,0.3,0,0.6,0.1,0.8
			c0.1,0.3,0.1,0.6,0.3,0.8c0.1,0.3,0.4,0.5,0.6,0.6s0.6,0.2,1.1,0.2s0.8-0.1,1.1-0.2s0.5-0.4,0.6-0.6s0.2-0.5,0.3-0.8
			c0.1-0.3,0.1-0.6,0.1-0.8v-4.4h0.7L132.7,36.8L132.7,36.8z"/>
		<path class="st45" d="M148.5,32.2h2.2c0.3,0,0.6,0,0.9,0.1c0.3,0.1,0.6,0.2,0.8,0.3c0.2,0.2,0.4,0.3,0.6,0.6s0.2,0.6,0.2,1
			c0,0.3-0.1,0.6-0.2,0.9c-0.1,0.2-0.3,0.4-0.5,0.6c-0.2,0.2-0.5,0.3-0.8,0.3s-0.6,0.1-0.9,0.1h-1.7v3.5h-0.7L148.5,32.2L148.5,32.2
			z M149.2,35.5h1.6c0.2,0,0.4,0,0.6-0.1c0.2,0,0.4-0.1,0.5-0.2s0.3-0.2,0.4-0.4c0.1-0.2,0.1-0.4,0.1-0.6c0-0.2-0.1-0.4-0.1-0.6
			c-0.1-0.2-0.2-0.3-0.4-0.4c-0.2-0.1-0.3-0.2-0.6-0.2c-0.2,0-0.4-0.1-0.6-0.1h-1.6L149.2,35.5L149.2,35.5z"/>
	</g>
</g>
</svg>
