<svg xmlns="http://www.w3.org/2000/svg" viewBox="0 0 35.56 49.66"><defs><style>.cls-1{isolation:isolate;}.cls-2{fill:#f1f2f2;mix-blend-mode:multiply;}.cls-3{fill:#0298f6;}.cls-4{fill:#f7941d;}.cls-5{fill:#fff;}.cls-6{fill:#233dc5;}</style></defs><title>logo</title><g class="cls-1"><g id="Layer_1" data-name="Layer 1"><path class="cls-2" d="M35.54,11.87V.75L25.17,8.62h-15A3.67,3.67,0,0,0,6.48,12.3v2H4.43A3.68,3.68,0,0,0,.75,18V38.11a3.25,3.25,0,0,0,0,.44V49.66l10.36-7.87h15a3.68,3.68,0,0,0,3.68-3.68v-2h2.05a3.67,3.67,0,0,0,3.67-3.68V12.3C35.56,12.15,35.55,12,35.54,11.87Z"/><path class="cls-3" d="M34.78,11.11V0L24.42,7.87H9.4a3.67,3.67,0,0,0-3.67,3.68v2H25.41a3.67,3.67,0,0,1,3.68,3.67v18h2a3.68,3.68,0,0,0,3.68-3.68V11.55A3.25,3.25,0,0,0,34.78,11.11Z"/><path class="cls-4" d="M5.73,31.63v-18H3.68A3.67,3.67,0,0,0,0,17.27V37.36a3,3,0,0,0,0,.43V48.91L10.39,41h15a3.68,3.68,0,0,0,3.68-3.68v-2H9.4A3.67,3.67,0,0,1,5.73,31.63Z"/><path class="cls-5" d="M25.41,13.6H5.73v18A3.67,3.67,0,0,0,9.4,35.31H29.09v-18A3.67,3.67,0,0,0,25.41,13.6Z"/><circle class="cls-6" cx="10.77" cy="19.06" r="1.76"/><circle class="cls-6" cx="17.41" cy="19.06" r="1.76"/><path class="cls-6" d="M25.81,19.06a1.77,1.77,0,1,1-1.76-1.76A1.76,1.76,0,0,1,25.81,19.06Z"/><circle class="cls-6" cx="10.77" cy="24.45" r="1.76"/><circle class="cls-6" cx="17.41" cy="24.45" r="1.76"/><path class="cls-6" d="M25.81,24.45a1.77,1.77,0,1,1-1.76-1.76A1.76,1.76,0,0,1,25.81,24.45Z"/><circle class="cls-6" cx="10.77" cy="29.85" r="1.76"/><circle class="cls-6" cx="17.41" cy="29.85" r="1.76"/><path class="cls-6" d="M25.81,29.85a1.77,1.77,0,1,1-1.76-1.77A1.76,1.76,0,0,1,25.81,29.85Z"/></g></g></svg>