<svg xmlns="http://www.w3.org/2000/svg" viewBox="0 0 141.18 96.56"><defs><style>.cls-1{isolation:isolate;}.cls-2{fill:#f1f2f2;mix-blend-mode:multiply;}.cls-3{fill:#0298f6;}.cls-4{fill:#f7941d;}.cls-5{fill:#fff;}.cls-6{fill:#233dc5;}.cls-7{fill:#231f20;}</style></defs><title>iScheduleMeeting_v2</title><g class="cls-1"><g id="Referral_CaseDetails_NotSelected"><path class="cls-2" d="M93.23,17.47v-13l-12.11,9.2H63.56a4.31,4.31,0,0,0-4.3,4.3v2.4H56.87a4.3,4.3,0,0,0-4.3,4.29V48.15a4.38,4.38,0,0,0,0,.51v13l12.11-9.2H82.27a4.3,4.3,0,0,0,4.3-4.3v-2.4H89a4.29,4.29,0,0,0,4.3-4.29V18A4.36,4.36,0,0,0,93.23,17.47Z"/><path class="cls-3" d="M92.35,16.59V3.6L80.24,12.81H62.68a4.29,4.29,0,0,0-4.29,4.29v2.4h23a4.29,4.29,0,0,1,4.3,4.29V44.87h2.39a4.29,4.29,0,0,0,4.3-4.29V17.1A4.36,4.36,0,0,0,92.35,16.59Z"/><path class="cls-4" d="M58.39,40.58V19.5H56a4.3,4.3,0,0,0-4.3,4.29V47.27a4.38,4.38,0,0,0,0,.51v13l12.11-9.2H81.39a4.3,4.3,0,0,0,4.3-4.3v-2.4h-23A4.29,4.29,0,0,1,58.39,40.58Z"/><path class="cls-5" d="M81.39,19.5h-23V40.58a4.29,4.29,0,0,0,4.29,4.29h23V23.79A4.29,4.29,0,0,0,81.39,19.5Z"/><circle class="cls-6" cx="64.28" cy="25.88" r="2.06"/><circle class="cls-6" cx="72.04" cy="25.88" r="2.06"/><circle class="cls-6" cx="79.8" cy="25.88" r="2.06"/><circle class="cls-6" cx="64.28" cy="32.19" r="2.06"/><circle class="cls-6" cx="72.04" cy="32.19" r="2.06"/><circle class="cls-6" cx="79.8" cy="32.19" r="2.06"/><circle class="cls-6" cx="64.28" cy="38.49" r="2.06"/><circle class="cls-6" cx="72.04" cy="38.49" r="2.06"/><circle class="cls-6" cx="79.8" cy="38.49" r="2.06"/><path class="cls-7" d="M5.27,72a1.22,1.22,0,0,1,1.25-1.21A1.22,1.22,0,1,1,5.27,72Zm.09,2.19H7.69V83H5.36Z"/><path class="cls-7" d="M11.54,79.68c.11.95,1.1,1.58,2.38,1.58s2.17-.62,2.17-1.47-.55-1.16-1.95-1.47L12.64,78c-2.13-.46-3.17-1.54-3.17-3.22,0-2.13,1.84-3.54,4.41-3.54s4.37,1.38,4.41,3.47H16c-.08-1-.93-1.57-2.14-1.57s-2,.57-2,1.43c0,.71.56,1.11,1.89,1.41l1.39.3c2.32.49,3.32,1.49,3.32,3.24,0,2.24-1.81,3.66-4.67,3.66s-4.55-1.32-4.62-3.49Z"/><path class="cls-7" d="M25.75,77.41A1.71,1.71,0,0,0,24,75.85c-1.2,0-2,1-2,2.71s.76,2.71,2,2.71a1.66,1.66,0,0,0,1.79-1.5h2.17c-.13,2-1.67,3.35-4,3.35-2.63,0-4.31-1.73-4.31-4.56S21.32,74,23.93,74c2.37,0,3.88,1.44,4,3.4Z"/><path class="cls-7" d="M29.32,70.88h2.29v4.86h.05A2.8,2.8,0,0,1,34.43,74c2,0,3.08,1.26,3.08,3.3V83H35.17V77.83c0-1.15-.57-1.85-1.68-1.85a1.79,1.79,0,0,0-1.84,2v5H29.32Z"/><path class="cls-7" d="M47.19,80.28c-.26,1.71-1.85,2.84-4,2.84-2.68,0-4.32-1.72-4.32-4.52S40.53,74,43.11,74s4.15,1.7,4.15,4.38v.72H41.18v.14a2,2,0,0,0,2.06,2.13,1.78,1.78,0,0,0,1.8-1.1Zm-6-2.62H45a1.82,1.82,0,0,0-1.87-1.9A1.91,1.91,0,0,0,41.21,77.66Z"/><path class="cls-7" d="M48.34,78.56c0-2.76,1.42-4.5,3.62-4.5a2.82,2.82,0,0,1,2.69,1.61h.05V70.88H57V83h-2.3v-1.5h0A2.89,2.89,0,0,1,52,83.07C49.76,83.07,48.34,81.33,48.34,78.56Zm2.39,0c0,1.62.78,2.63,2,2.63s2-1,2-2.62-.78-2.62-2-2.62S50.73,77,50.73,78.56Z"/><path class="cls-7" d="M66.88,83H64.62V81.38h0a2.63,2.63,0,0,1-2.65,1.72,3,3,0,0,1-3.16-3.29V74.17h2.34v5.15c0,1.19.59,1.83,1.67,1.83a1.75,1.75,0,0,0,1.76-2v-5h2.34Z"/><path class="cls-7" d="M68.68,70.88H71V83H68.68Z"/><path class="cls-7" d="M80.8,80.28c-.26,1.71-1.85,2.84-4,2.84-2.68,0-4.32-1.72-4.32-4.52S74.13,74,76.72,74s4.15,1.7,4.15,4.38v.72H74.79v.14a2,2,0,0,0,2.06,2.13,1.77,1.77,0,0,0,1.79-1.1Zm-6-2.62h3.8a1.82,1.82,0,0,0-1.87-1.9A1.92,1.92,0,0,0,74.81,77.66Z"/><path class="cls-7" d="M93.29,83h-.61V72.74h0L88.2,82.94h-.6l-4.45-10.2h0V83h-.61V71.43h.7l4.67,10.72h0l4.65-10.72h.72Z"/><path class="cls-7" d="M102.33,80.56a3.3,3.3,0,0,1-3.51,2.52c-2.33,0-3.84-1.64-3.84-4.4s1.51-4.43,3.78-4.43,3.68,1.65,3.68,4.15v.36H95.62v0c0,2.35,1.28,3.72,3.21,3.72a2.69,2.69,0,0,0,2.87-2Zm-6.71-2.32h6.18c0-2-1.23-3.43-3-3.43S95.72,76.18,95.62,78.24Z"/><path class="cls-7" d="M111,80.56a3.31,3.31,0,0,1-3.51,2.52c-2.33,0-3.84-1.64-3.84-4.4s1.51-4.43,3.78-4.43,3.67,1.65,3.67,4.15v.36h-6.82v0c0,2.35,1.28,3.72,3.22,3.72a2.7,2.7,0,0,0,2.87-2Zm-6.71-2.32h6.18c0-2-1.24-3.43-3-3.43S104.37,76.18,104.27,78.24Z"/><path class="cls-7" d="M113.81,72.14v2.22h1.73v.54h-1.73V81c0,1,.38,1.44,1.25,1.44h.59V83H115c-1.25,0-1.79-.55-1.79-2V74.9h-1.26v-.54h1.26V72.14Z"/><path class="cls-7" d="M117.17,71.76a.5.5,0,0,1,.5-.5.5.5,0,1,1-.5.5Zm.19,2.6H118V83h-.62Z"/><path class="cls-7" d="M120.13,74.36h.58v1.89h0a3.18,3.18,0,0,1,6.13,1.16V83h-.63V77.48a2.48,2.48,0,0,0-2.66-2.67,2.78,2.78,0,0,0-2.82,3V83h-.62Z"/><path class="cls-7" d="M128.93,83.87h.65c.22.84,1.26,1.43,2.74,1.43,1.75,0,3-.88,3-2.35V80.67h0a3.27,3.27,0,0,1-3.19,2.39c-2.17,0-3.64-1.78-3.64-4.4s1.48-4.41,3.64-4.41a3.34,3.34,0,0,1,3.23,2.41h0v-2.3h.58v8.55c0,1.87-1.48,3-3.63,3C130.44,85.86,129.17,85.06,128.93,83.87Zm6.36-5.21c0-2.27-1.29-3.85-3.14-3.85s-3.08,1.56-3.08,3.85,1.25,3.84,3.08,3.84S135.29,80.92,135.29,78.66Z"/></g></g></svg>