<svg xmlns="http://www.w3.org/2000/svg" viewBox="0 0 197.25 49.66"><defs><style>.cls-1{isolation:isolate;}.cls-2{fill:#fff;}.cls-3{fill:#f1f2f2;mix-blend-mode:multiply;}.cls-4{fill:#0298f6;}.cls-5{fill:#f7941d;}.cls-6{fill:#233dc5;}</style></defs><title>logo-14</title><g class="cls-1"><g id="Layer_1" data-name="Layer 1"><path class="cls-2" d="M45,21.86a1.47,1.47,0,1,1,1.46,1.42A1.42,1.42,0,0,1,45,21.86Zm.1,2.54h2.72V34.65H45.06Z"/><path class="cls-2" d="M52.27,30.82c.13,1.11,1.28,1.84,2.77,1.84s2.52-.72,2.52-1.71-.64-1.36-2.26-1.72l-1.75-.38c-2.48-.53-3.69-1.79-3.69-3.75C49.86,22.62,52,21,55,21s5.1,1.61,5.14,4H57.5c-.1-1.13-1.09-1.82-2.5-1.82s-2.31.66-2.31,1.66c0,.83.65,1.29,2.19,1.64l1.63.35c2.69.58,3.86,1.73,3.86,3.78,0,2.6-2.11,4.25-5.44,4.25s-5.29-1.53-5.37-4.06Z"/><path class="cls-2" d="M68.83,28.18a2,2,0,0,0-2.08-1.82c-1.39,0-2.28,1.2-2.28,3.16s.89,3.16,2.29,3.16a1.94,1.94,0,0,0,2.08-1.75h2.53c-.16,2.38-2,3.9-4.64,3.9-3.06,0-5-2-5-5.31s2-5.3,5-5.3c2.76,0,4.52,1.68,4.65,4Z"/><path class="cls-2" d="M73,20.58h2.67v5.65h.06a3.24,3.24,0,0,1,3.22-2c2.27,0,3.58,1.47,3.58,3.85v6.55H79.81v-6c0-1.34-.67-2.15-2-2.15a2.08,2.08,0,0,0-2.13,2.32v5.82H73Z"/><path class="cls-2" d="M93.81,31.52c-.29,2-2.15,3.31-4.64,3.31-3.12,0-5-2-5-5.26s1.92-5.35,4.93-5.35,4.83,2,4.83,5.1v.83H86.82v.17a2.31,2.31,0,0,0,2.4,2.48,2.06,2.06,0,0,0,2.09-1.28Zm-7-3.05h4.42a2.12,2.12,0,0,0-2.18-2.22A2.24,2.24,0,0,0,86.85,28.47Z"/><path class="cls-2" d="M95.17,29.51c0-3.21,1.66-5.23,4.21-5.23a3.3,3.3,0,0,1,3.14,1.87h0V20.58h2.72V34.65h-2.68V32.9h0a3.34,3.34,0,0,1-3.19,1.87C96.82,34.77,95.17,32.74,95.17,29.51Zm2.79,0c0,1.88.9,3.05,2.31,3.05s2.32-1.19,2.32-3-.91-3.05-2.32-3.05S98,27.66,98,29.52Z"/><path class="cls-2" d="M116.77,34.65h-2.62V32.8h-.06a3.05,3.05,0,0,1-3.08,2A3.5,3.5,0,0,1,107.33,31V24.4h2.72v6c0,1.39.69,2.14,2,2.14a2,2,0,0,0,2-2.3V24.4h2.72Z"/><path class="cls-2" d="M118.89,20.58h2.71V34.65h-2.71Z"/><path class="cls-2" d="M133,31.52c-.29,2-2.15,3.31-4.64,3.31-3.12,0-5-2-5-5.26s1.92-5.35,4.93-5.35,4.83,2,4.83,5.1v.83H126v.17a2.31,2.31,0,0,0,2.4,2.48,2.06,2.06,0,0,0,2.09-1.28Zm-7-3.05h4.42a2.12,2.12,0,0,0-2.18-2.22A2.24,2.24,0,0,0,126,28.47Z"/><path class="cls-2" d="M147.55,34.65h-.7V22.74h0l-5.18,11.88h-.7l-5.18-11.88h0V34.65H135V21.22h.82l5.42,12.47h.06l5.41-12.47h.83Z"/><path class="cls-2" d="M158.1,31.85A3.84,3.84,0,0,1,154,34.78c-2.72,0-4.47-1.91-4.47-5.13s1.75-5.16,4.39-5.16,4.28,1.93,4.28,4.84v.42h-7.94v0c0,2.74,1.49,4.34,3.75,4.34a3.14,3.14,0,0,0,3.34-2.28Zm-7.81-2.71h7.2c0-2.37-1.44-4-3.56-4S150.41,26.75,150.29,29.14Z"/><path class="cls-2" d="M168.19,31.85a3.86,3.86,0,0,1-4.09,2.93c-2.72,0-4.47-1.91-4.47-5.13s1.75-5.16,4.39-5.16,4.29,1.93,4.29,4.84v.42h-7.94v0c0,2.74,1.49,4.34,3.74,4.34a3.14,3.14,0,0,0,3.34-2.28Zm-7.81-2.71h7.19c0-2.37-1.44-4-3.55-4S160.49,26.75,160.38,29.14Z"/><path class="cls-2" d="M171.49,22.05v2.57h2v.64h-2v7.09c0,1.2.45,1.68,1.45,1.68l.7,0v.64l-.79,0c-1.45,0-2.08-.64-2.08-2.3V25.26H169.3v-.64h1.47V22.05Z"/><path class="cls-2" d="M175.42,21.6a.58.58,0,1,1,.57.57A.57.57,0,0,1,175.42,21.6Zm.21,3h.73v10h-.73Z"/><path class="cls-2" d="M178.86,24.62h.68v2.21h0A3.49,3.49,0,0,1,183,24.49a3.45,3.45,0,0,1,3.66,3.69v6.47H186V28.26a2.89,2.89,0,0,0-3.1-3.11,3.25,3.25,0,0,0-3.29,3.53v6h-.72Z"/><path class="cls-2" d="M189.13,35.7h.75c.25,1,1.46,1.67,3.18,1.67,2.05,0,3.47-1,3.47-2.74V32h0a3.83,3.83,0,0,1-3.73,2.78c-2.52,0-4.23-2.07-4.23-5.13s1.72-5.14,4.24-5.14a3.86,3.86,0,0,1,3.75,2.82h0V24.62h.68v10c0,2.17-1.73,3.43-4.23,3.43C190.88,38,189.4,37.08,189.13,35.7Zm7.4-6.07c0-2.64-1.5-4.48-3.66-4.48s-3.59,1.82-3.59,4.48,1.46,4.47,3.59,4.47S196.53,32.27,196.53,29.63Z"/><path class="cls-3" d="M35.54,11.87V.75L25.17,8.62h-15A3.67,3.67,0,0,0,6.48,12.3v2H4.43A3.68,3.68,0,0,0,.75,18V38.11a3.25,3.25,0,0,0,0,.44V49.66l10.36-7.87h15a3.68,3.68,0,0,0,3.68-3.68v-2h2.05a3.67,3.67,0,0,0,3.67-3.68V12.3C35.56,12.15,35.55,12,35.54,11.87Z"/><path class="cls-4" d="M34.78,11.11V0L24.42,7.87H9.4a3.67,3.67,0,0,0-3.67,3.68v2H25.41a3.67,3.67,0,0,1,3.68,3.67v18h2a3.68,3.68,0,0,0,3.68-3.68V11.55A3.25,3.25,0,0,0,34.78,11.11Z"/><path class="cls-5" d="M5.73,31.63v-18H3.68A3.67,3.67,0,0,0,0,17.27V37.36a3,3,0,0,0,0,.43V48.91L10.39,41h15a3.68,3.68,0,0,0,3.68-3.68v-2H9.4A3.67,3.67,0,0,1,5.73,31.63Z"/><path class="cls-2" d="M25.41,13.6H5.73v18A3.67,3.67,0,0,0,9.4,35.31H29.09v-18A3.67,3.67,0,0,0,25.41,13.6Z"/><circle class="cls-6" cx="10.77" cy="19.06" r="1.76"/><circle class="cls-6" cx="17.41" cy="19.06" r="1.76"/><path class="cls-6" d="M25.81,19.06a1.77,1.77,0,1,1-1.76-1.76A1.76,1.76,0,0,1,25.81,19.06Z"/><circle class="cls-6" cx="10.77" cy="24.45" r="1.76"/><circle class="cls-6" cx="17.41" cy="24.45" r="1.76"/><path class="cls-6" d="M25.81,24.45a1.77,1.77,0,1,1-1.76-1.76A1.76,1.76,0,0,1,25.81,24.45Z"/><circle class="cls-6" cx="10.77" cy="29.85" r="1.76"/><circle class="cls-6" cx="17.41" cy="29.85" r="1.76"/><path class="cls-6" d="M25.81,29.85a1.77,1.77,0,1,1-1.76-1.77A1.76,1.76,0,0,1,25.81,29.85Z"/></g></g></svg>