<svg xmlns="http://www.w3.org/2000/svg" viewBox="0 0 141.6 38"><defs><style>.cls-1{isolation:isolate;}.cls-2{fill:#f1f2f2;mix-blend-mode:multiply;}.cls-3{fill:#0298f6;}.cls-4{fill:#f7941d;}.cls-5{fill:#fff;}.cls-6{fill:#233dc5;}.cls-7{fill:#697685;}</style></defs><title>iScheduleMeeting_v6</title><g class="cls-1"><g id="Referral_CaseDetails_NotSelected"><path class="cls-2" d="M27.19,9.08V.58l-7.93,6H7.77A2.81,2.81,0,0,0,5,9.41V11H3.39A2.81,2.81,0,0,0,.58,13.79V29.16a1.88,1.88,0,0,0,0,.34V38l7.93-6H20a2.81,2.81,0,0,0,2.81-2.82V27.59H24.4a2.81,2.81,0,0,0,2.81-2.81V9.41A1.83,1.83,0,0,0,27.19,9.08Z"/><path class="cls-3" d="M26.62,8.5V0L18.69,6H7.2A2.82,2.82,0,0,0,4.38,8.84v1.57H19.44a2.81,2.81,0,0,1,2.82,2.81V27h1.56a2.81,2.81,0,0,0,2.82-2.81V8.84C26.64,8.72,26.63,8.61,26.62,8.5Z"/><path class="cls-4" d="M4.38,24.21V10.41H2.81A2.81,2.81,0,0,0,0,13.22V28.59c0,.11,0,.22,0,.33v8.5L8,31.4H19.44a2.81,2.81,0,0,0,2.82-2.81V27H7.2A2.81,2.81,0,0,1,4.38,24.21Z"/><path class="cls-5" d="M19.44,10.41H4.38v13.8A2.81,2.81,0,0,0,7.2,27H22.26V13.22A2.81,2.81,0,0,0,19.44,10.41Z"/><circle class="cls-6" cx="8.24" cy="14.59" r="1.35"/><circle class="cls-6" cx="13.32" cy="14.59" r="1.35"/><circle class="cls-6" cx="18.4" cy="14.59" r="1.35"/><circle class="cls-6" cx="8.24" cy="18.71" r="1.35"/><circle class="cls-6" cx="13.32" cy="18.71" r="1.35"/><circle class="cls-6" cx="18.4" cy="18.71" r="1.35"/><circle class="cls-6" cx="8.24" cy="22.84" r="1.35"/><circle class="cls-6" cx="13.32" cy="22.84" r="1.35"/><circle class="cls-6" cx="18.4" cy="22.84" r="1.35"/><path class="cls-6" d="M37.8,18.3a1,1,0,1,1,1,1A1,1,0,0,1,37.8,18.3ZM37.87,20h1.86v7H37.87Z"/><path class="cls-6" d="M42.78,24.41c.09.76.88,1.25,1.9,1.25s1.72-.49,1.72-1.16-.44-.93-1.55-1.17l-1.19-.26c-1.69-.37-2.52-1.22-2.52-2.56,0-1.69,1.46-2.81,3.5-2.81s3.48,1.1,3.51,2.76h-1.8c-.06-.78-.74-1.25-1.7-1.25s-1.58.45-1.58,1.13.44.89,1.5,1.13l1.11.23c1.83.4,2.63,1.18,2.63,2.58,0,1.78-1.44,2.9-3.71,2.9S41,26.13,40.94,24.41Z"/><path class="cls-6" d="M54.07,22.61a1.36,1.36,0,0,0-1.41-1.24c-.95,0-1.56.81-1.56,2.15s.61,2.16,1.56,2.16a1.33,1.33,0,0,0,1.42-1.2h1.73a2.86,2.86,0,0,1-3.17,2.66,3.28,3.28,0,0,1-3.42-3.62,3.29,3.29,0,0,1,3.41-3.61,2.89,2.89,0,0,1,3.17,2.7Z"/><path class="cls-6" d="M56.91,17.42h1.83v3.86h0A2.22,2.22,0,0,1,61,19.93a2.33,2.33,0,0,1,2.44,2.62V27H61.56V22.94c0-.91-.46-1.47-1.34-1.47a1.42,1.42,0,0,0-1.45,1.58v4H56.91Z"/><path class="cls-6" d="M71.1,24.89c-.2,1.35-1.46,2.25-3.16,2.25a3.24,3.24,0,0,1-3.43-3.58c0-2.23,1.31-3.65,3.36-3.65a3.16,3.16,0,0,1,3.29,3.47V24H66.34v.11A1.57,1.57,0,0,0,68,25.76a1.41,1.41,0,0,0,1.43-.87Zm-4.74-2.08h3a1.44,1.44,0,0,0-1.48-1.51A1.51,1.51,0,0,0,66.36,22.81Z"/><path class="cls-6" d="M72,23.52C72,21.33,73.16,20,74.9,20A2.24,2.24,0,0,1,77,21.23h0V17.42h1.86V27H77.1V25.83h0a2.29,2.29,0,0,1-2.18,1.27C73.15,27.1,72,25.72,72,23.52Zm1.89,0c0,1.29.62,2.09,1.59,2.09s1.58-.82,1.58-2.08-.63-2.08-1.58-2.08S73.92,22.25,73.92,23.52Z"/><path class="cls-6" d="M86.75,27H85V25.76h0a2.08,2.08,0,0,1-2.1,1.36,2.39,2.39,0,0,1-2.51-2.61V20h1.86v4.1c0,.94.47,1.45,1.32,1.45A1.4,1.4,0,0,0,84.9,24V20h1.85Z"/><path class="cls-6" d="M88.19,17.42H90V27H88.19Z"/><path class="cls-6" d="M97.81,24.89c-.21,1.35-1.47,2.25-3.17,2.25a3.24,3.24,0,0,1-3.43-3.58c0-2.23,1.31-3.65,3.36-3.65a3.16,3.16,0,0,1,3.29,3.47V24H93v.11a1.57,1.57,0,0,0,1.63,1.69,1.41,1.41,0,0,0,1.43-.87Zm-4.75-2.08h3a1.44,1.44,0,0,0-1.48-1.51A1.51,1.51,0,0,0,93.06,22.81Z"/><path class="cls-6" d="M107.73,27h-.48V18.9h0L103.69,27h-.48l-3.53-8.1h0V27h-.48V17.86h.55l3.7,8.51h0l3.69-8.51h.57Z"/><path class="cls-6" d="M114.92,25.11a2.62,2.62,0,0,1-2.79,2c-1.85,0-3-1.3-3-3.5s1.19-3.51,3-3.51S115,21.41,115,23.4v.28h-5.41v0c0,1.86,1,3,2.55,3a2.14,2.14,0,0,0,2.28-1.56Zm-5.33-1.85h4.91a2.45,2.45,0,0,0-2.42-2.72A2.55,2.55,0,0,0,109.59,23.26Z"/><path class="cls-6" d="M121.79,25.11a2.62,2.62,0,0,1-2.79,2c-1.85,0-3-1.3-3-3.5s1.19-3.51,3-3.51,2.92,1.31,2.92,3.3v.28h-5.41v0c0,1.86,1,3,2.55,3a2.14,2.14,0,0,0,2.28-1.56Zm-5.32-1.85h4.9A2.45,2.45,0,0,0,119,20.54,2.54,2.54,0,0,0,116.47,23.26Z"/><path class="cls-6" d="M124,18.43v1.75h1.38v.44H124v4.83c0,.82.31,1.15,1,1.15l.48,0V27H125c-1,0-1.42-.43-1.42-1.56V20.62h-1v-.44h1V18.43Z"/><path class="cls-6" d="M126.72,18.12a.38.38,0,0,1,.39-.39.39.39,0,1,1,0,.78A.38.38,0,0,1,126.72,18.12Zm.14,2.06h.5V27h-.5Z"/><path class="cls-6" d="M129.06,20.18h.47v1.51h0a2.52,2.52,0,0,1,4.87.92V27h-.5V22.67a2,2,0,0,0-2.11-2.12,2.21,2.21,0,0,0-2.24,2.4V27h-.5Z"/><path class="cls-6" d="M136.06,27.74h.51c.18.66,1,1.13,2.18,1.13,1.39,0,2.36-.7,2.36-1.86V25.2h0a2.61,2.61,0,0,1-2.53,1.9c-1.72,0-2.89-1.42-2.89-3.5s1.17-3.5,2.89-3.5A2.64,2.64,0,0,1,141.12,22h0V20.18h.46V27c0,1.48-1.18,2.33-2.89,2.33C137.26,29.31,136.24,28.68,136.06,27.74Zm5.05-4.14c0-1.8-1-3.05-2.5-3.05s-2.44,1.23-2.44,3.05,1,3,2.44,3S141.11,25.4,141.11,23.6Z"/><path class="cls-7" d="M40.37,2.65a2.12,2.12,0,0,1,2.26,2.2A2.11,2.11,0,0,1,40.37,7H38.54V9.7h-.67v-7Zm-1.83,3.8h1.68A1.54,1.54,0,0,0,42,4.85a1.53,1.53,0,0,0-1.73-1.6H38.54Z"/><path class="cls-7" d="M43.18,7.07a2.41,2.41,0,1,1,4.78,0,2.41,2.41,0,1,1-4.78,0Zm4.12,0C47.3,5.76,46.64,5,45.57,5s-1.73.8-1.73,2.11.66,2.11,1.73,2.11S47.3,8.38,47.3,7.07Z"/><path class="cls-7" d="M54,9.7h-.68L52,5.32h0L50.66,9.7H50l-1.5-5.26h.65L50.32,9h0l1.32-4.53h.66L53.63,9h0l1.2-4.53h.65Z"/><path class="cls-7" d="M60.55,8.21a2,2,0,0,1-2.16,1.55c-1.46,0-2.38-1-2.38-2.68s.92-2.7,2.34-2.7A2.27,2.27,0,0,1,60.62,7v.28H56.67v0A1.71,1.71,0,0,0,58.4,9.19a1.44,1.44,0,0,0,1.51-1ZM56.67,6.7H60A1.61,1.61,0,0,0,58.34,5,1.69,1.69,0,0,0,56.67,6.7Z"/><path class="cls-7" d="M61.62,4.44h.6v.93h0a1.33,1.33,0,0,1,1.34-1,1.37,1.37,0,0,1,.41.06v.64a1.39,1.39,0,0,0-.5-.08,1.27,1.27,0,0,0-1.23,1.44V9.7h-.64Z"/><path class="cls-7" d="M64.25,7.07c0-1.61.92-2.69,2.23-2.69a1.9,1.9,0,0,1,1.81,1.14h0V2.35H69V9.7h-.61V8.58h0A1.9,1.9,0,0,1,66.5,9.76C65.18,9.76,64.25,8.68,64.25,7.07Zm.66,0c0,1.27.68,2.11,1.69,2.11s1.71-.86,1.71-2.11S67.61,5,66.6,5,64.91,5.8,64.91,7.07Z"/><path class="cls-7" d="M72.66,9.7v-7h2.59a1.8,1.8,0,0,1,2,1.74A1.6,1.6,0,0,1,76,6V6a1.74,1.74,0,0,1,1.65,1.76c0,1.2-.9,1.93-2.39,1.93Zm.66-3.92h1.59c1.07,0,1.7-.48,1.7-1.31S76,3.25,75.11,3.25H73.32Zm1.85,3.33c1.15,0,1.79-.5,1.79-1.38s-.66-1.37-1.88-1.37H73.32V9.11Z"/><path class="cls-7" d="M78.68,11.53V11A1.48,1.48,0,0,0,79,11c.48,0,.74-.23,1-.91l.13-.36-2-5.29h.69l1.62,4.61h0l1.62-4.61h.68L80.68,10c-.46,1.23-.83,1.57-1.68,1.57Z"/></g></g></svg>