<svg id="Referral_CaseDetails_NotSelected" xmlns="http://www.w3.org/2000/svg" viewBox="0 0 17.32 16.24"><defs><style>.cls-1{fill:#1976d2;}.cls-2{fill:#2196f3;}.cls-3{fill:#fafafa;}</style></defs><title>iScheduleMeeting_v6</title><path class="cls-1" d="M16.78,3.25H9.2a.54.54,0,0,0,0,1.08h6L11.87,6.92,9.49,5.4l-.58.91L11.62,8a.5.5,0,0,0,.29.09A.59.59,0,0,0,12.24,8l4-3.11v7h-7A.54.54,0,0,0,9.2,13h7.58a.54.54,0,0,0,.54-.54V3.79A.54.54,0,0,0,16.78,3.25Z"/><path class="cls-2" d="M9.55.13A.53.53,0,0,0,9.1,0L.44,1.63A.55.55,0,0,0,0,2.17v11.9a.54.54,0,0,0,.44.53L9.1,16.23h.1a.56.56,0,0,0,.35-.13.53.53,0,0,0,.19-.41V.54A.53.53,0,0,0,9.55.13Z"/><path class="cls-3" d="M4.87,11.91A3,3,0,0,1,2.16,8.66,3,3,0,0,1,4.87,5.41,3,3,0,0,1,7.58,8.66,3,3,0,0,1,4.87,11.91Zm0-5.41c-.89,0-1.62,1-1.62,2.16S4,10.82,4.87,10.82s1.62-1,1.62-2.16S5.77,6.5,4.87,6.5Z"/></svg>